<svg width="102" height="28" viewBox="0 0 102 28" fill="none" xmlns="http://www.w3.org/2000/svg">
<g clip-path="url(#clip0_11_4131)">
<path fill-rule="evenodd" clip-rule="evenodd" d="M9.44113 4.97385L7.06536 0.975477C6.93382 0.764351 6.75056 0.589906 6.53279 0.468485C6.31496 0.347064 6.06977 0.28264 5.82012 0.28125H0L7.94853 18.3311H11.0043L18.9529 0.28125H13.2476C12.9979 0.28264 12.7527 0.347064 12.5349 0.468485C12.3171 0.589906 12.1339 0.764351 12.0023 0.975477L9.44113 4.97385ZM6.27049 5.64171L9.44113 10.9143L12.6647 5.64171L9.44113 12.9091L6.27049 5.64171Z" fill="#F8F9F8"/>
<path fill-rule="evenodd" clip-rule="evenodd" d="M33.6142 3.60293C32.2923 3.60497 31.012 4.06297 29.9914 4.89889C28.9708 5.73482 28.2731 6.89697 28.0171 8.18733C27.7611 9.47774 27.9626 10.8165 28.5873 11.9756C29.2121 13.1348 30.2214 14.0425 31.4433 14.5442C32.6652 15.0459 34.0242 15.1106 35.2887 14.7272C36.5531 14.3438 37.6449 13.536 38.378 12.4415C39.111 11.347 39.4401 10.0335 39.309 8.72471C39.1779 7.41594 38.5948 6.19281 37.6591 5.2638C36.5851 4.19889 35.1303 3.60156 33.6142 3.60293ZM33.6142 18.5419C31.4576 18.544 29.3671 17.8016 27.6992 16.4414C26.0312 15.0812 24.8892 13.1874 24.4676 11.083C24.0461 8.97862 24.3713 6.79389 25.3877 4.90136C26.4041 3.00885 28.0489 1.52577 30.0415 0.704999C32.034 -0.115762 34.251 -0.223373 36.3144 0.400517C38.3778 1.02441 40.1598 2.34116 41.3566 4.12625C42.5533 5.91132 43.0907 8.05421 42.877 10.1894C42.6633 12.3247 41.7119 14.3201 40.185 15.8353C39.3245 16.6976 38.3007 17.3816 37.1728 17.8477C36.0449 18.3138 34.8354 18.5527 33.6142 18.5507V18.5419ZM89.6779 18.3134V14.7545H96.7431C97.2327 14.7535 97.7023 14.561 98.0506 14.2184C98.2226 14.0483 98.3592 13.8457 98.4518 13.6223C98.5444 13.399 98.591 13.1594 98.5889 12.9178C98.5889 12.4299 98.3952 11.9618 98.049 11.6161C97.7033 11.2702 97.2338 11.0747 96.7431 11.0724H94.5881C93.8571 11.1018 93.1276 10.9839 92.4437 10.7257C91.7593 10.4676 91.1346 10.0745 90.6069 9.5702C90.0791 9.06585 89.6593 8.46061 89.3724 7.79081C89.0855 7.12106 88.9378 6.40046 88.9378 5.6724C88.9378 4.94436 89.0855 4.22381 89.3724 3.55402C89.6593 2.88422 90.0791 2.27899 90.6069 1.77466C91.1346 1.27033 91.7593 0.877294 92.4437 0.619148C93.1276 0.361001 93.8571 0.243064 94.5881 0.272417H101.177V3.83141H94.5881C94.1196 3.86365 93.6808 4.07162 93.3605 4.41332C93.0398 4.75503 92.8614 5.20502 92.8614 5.6724C92.8614 6.13983 93.0398 6.58982 93.3605 6.93149C93.6808 7.27322 94.1196 7.4812 94.5881 7.51342H96.7875C98.1887 7.56971 99.5142 8.16322 100.486 9.16979C101.457 10.1763 102 11.5178 102 12.9135C102 14.309 101.457 15.6505 100.486 16.6571C99.5142 17.6636 98.1887 18.2572 96.7875 18.3134H89.6779ZM73.6397 18.3134V3.83141H68.4378V0.272417H82.4184V3.83141H77.225V18.3134H73.6397ZM49.8998 18.3134V0.272417H53.4324V14.7545H62.9532V18.3134H49.8998ZM33.6142 3.60293C34.9309 3.60867 36.205 4.06815 37.2197 4.90319C38.2344 5.73824 38.9271 6.89729 39.1798 8.18312C39.4325 9.46899 39.2297 10.8022 38.6059 11.9561C37.982 13.11 36.9757 14.0131 35.7581 14.512C34.5405 15.0109 33.1868 15.0746 31.9273 14.6924C30.6678 14.3101 29.5803 13.5055 28.8498 12.4154C28.1192 11.3253 27.7908 10.0171 27.9204 8.71324C28.0499 7.40938 28.6295 6.19046 29.5604 5.2638C30.0921 4.73388 30.7242 4.31422 31.42 4.02912C32.1159 3.74403 32.8617 3.59917 33.6142 3.60293ZM33.6142 18.5419C31.4576 18.544 29.3671 17.8016 27.6992 16.4414C26.0312 15.0812 24.8892 13.1874 24.4676 11.083C24.0461 8.97862 24.3713 6.79389 25.3877 4.90136C26.4041 3.00885 28.0489 1.52577 30.0415 0.704999C32.034 -0.115762 34.251 -0.223373 36.3144 0.400517C38.3778 1.02441 40.1598 2.34116 41.3566 4.12625C42.5533 5.91132 43.0907 8.05421 42.877 10.1894C42.6633 12.3247 41.7119 14.3201 40.185 15.8353C39.3245 16.6976 38.3007 17.3816 37.1728 17.8477C36.0449 18.3138 34.8354 18.5527 33.6142 18.5507" fill="#F8F9F8"/>
<path d="M22.9622 25.8532C23.0241 25.8532 23.077 25.8532 23.0947 25.8532L23.3067 26.2399C23.3161 26.2622 23.3168 26.2872 23.3086 26.31C23.3005 26.3327 23.284 26.3516 23.2625 26.3629C22.952 26.5525 22.5935 26.65 22.2292 26.6442C21.8435 26.6392 21.474 26.4884 21.1959 26.2224C21.0614 26.0824 20.957 25.9168 20.8887 25.7356C20.8203 25.5543 20.7897 25.3612 20.7985 25.1678C20.7908 24.9819 20.8223 24.7965 20.8908 24.6234C20.9594 24.4504 21.0635 24.2935 21.1965 24.1628C21.3296 24.0321 21.4885 23.9304 21.6633 23.8644C21.8381 23.7984 22.0249 23.7694 22.2116 23.7794C22.4144 23.7678 22.617 23.8058 22.8018 23.89C22.9865 23.9742 23.1477 24.1022 23.2714 24.2627C23.4737 24.5884 23.5637 24.9711 23.5275 25.3524C23.5289 25.3643 23.5276 25.3763 23.5237 25.3876C23.5197 25.3989 23.5132 25.4092 23.5048 25.4176C23.4962 25.4261 23.4859 25.4325 23.4745 25.4364C23.4632 25.4403 23.4511 25.4416 23.4392 25.4402H21.6728C21.6909 25.5762 21.7529 25.7026 21.8494 25.8005C21.9954 25.9356 22.1889 26.0082 22.3882 26.0026C22.5881 25.9946 22.7839 25.9437 22.9622 25.8532ZM22.6973 24.9745C22.6911 24.8437 22.6449 24.718 22.5648 24.6142C22.5096 24.5617 22.4445 24.5207 22.3733 24.4935C22.302 24.4664 22.226 24.4536 22.1497 24.456C21.9903 24.4513 21.8353 24.5079 21.7169 24.6142C21.6338 24.7178 21.5817 24.8427 21.5668 24.9745H22.6973Z" fill="#F8F9F8"/>
<path d="M26.4337 24.096C26.54 23.9868 26.6678 23.9008 26.8092 23.8433C26.9505 23.7858 27.1024 23.7581 27.2551 23.762C27.548 23.7482 27.8352 23.8456 28.0587 24.0345C28.1734 24.1487 28.2613 24.2867 28.3163 24.4386C28.3712 24.5904 28.3918 24.7525 28.3767 24.9132V26.4774C28.3767 26.5007 28.3674 26.5231 28.3508 26.5396C28.3342 26.5561 28.3118 26.5653 28.2884 26.5653H27.6701C27.6474 26.5633 27.6261 26.5534 27.6099 26.5373C27.5937 26.5213 27.5838 26.5 27.5818 26.4774V25.1153C27.6001 24.9311 27.5499 24.7466 27.4405 24.5969C27.3949 24.5475 27.3386 24.5091 27.2759 24.4848C27.2131 24.4604 27.1455 24.4507 27.0784 24.4563C26.6103 24.4563 26.4337 24.8956 26.4337 25.2823V26.4774C26.4337 26.5007 26.4244 26.5231 26.4078 26.5396C26.3913 26.5561 26.3688 26.5653 26.3454 26.5653H25.7272C25.7038 26.5653 25.6813 26.5561 25.6647 26.5396C25.6482 26.5231 25.6389 26.5007 25.6389 26.4774V23.929C25.6374 23.9171 25.6388 23.9051 25.6427 23.8938C25.6466 23.8825 25.6531 23.8722 25.6616 23.8637C25.6701 23.8553 25.6804 23.8488 25.6917 23.8449C25.7031 23.841 25.7153 23.8397 25.7272 23.8411H26.3189C26.3308 23.8397 26.3429 23.841 26.3543 23.8449C26.3657 23.8488 26.376 23.8553 26.3845 23.8637C26.393 23.8722 26.3994 23.8825 26.4034 23.8938C26.4073 23.9051 26.4086 23.9171 26.4072 23.929V24.096H26.4337Z" fill="#F8F9F8"/>
<path d="M32.7213 25.8532C32.7831 25.8532 32.8361 25.8532 32.8626 25.8532L33.0657 26.2399C33.0787 26.2578 33.0856 26.2793 33.0856 26.3014C33.0856 26.3235 33.0787 26.345 33.0657 26.3629C32.7515 26.5514 32.3905 26.6489 32.0236 26.6442C31.8192 26.6515 31.6154 26.618 31.4242 26.5456C31.2331 26.4731 31.0585 26.3632 30.9108 26.2224C30.7764 26.0824 30.6719 25.9168 30.6036 25.7356C30.5352 25.5543 30.5046 25.3612 30.5134 25.1678C30.5058 24.9819 30.5372 24.7965 30.6057 24.6234C30.6743 24.4504 30.7784 24.2935 30.9114 24.1628C31.0445 24.0321 31.2035 23.9304 31.3783 23.8644C31.5531 23.7984 31.7398 23.7694 31.9265 23.7794C32.1293 23.7678 32.332 23.8058 32.5167 23.89C32.7014 23.9742 32.8627 24.1022 32.9863 24.2627C33.1887 24.5884 33.2786 24.9711 33.2424 25.3524C33.2438 25.3643 33.2425 25.3763 33.2386 25.3876C33.2346 25.3989 33.2281 25.4092 33.2197 25.4176C33.2111 25.4261 33.2008 25.4325 33.1895 25.4364C33.1781 25.4403 33.166 25.4416 33.1541 25.4402H31.3877C31.4095 25.5769 31.4744 25.7031 31.5732 25.8005C31.6433 25.868 31.7264 25.9206 31.8174 25.9554C31.9085 25.9901 32.0057 26.0062 32.1031 26.0026C32.3389 25.999 32.57 25.9354 32.7743 25.8181L32.7213 25.8532ZM32.5093 24.9394C32.5031 24.8086 32.4569 24.6829 32.3769 24.5791C32.3237 24.5264 32.2602 24.4852 32.1902 24.4579C32.1204 24.4307 32.0456 24.4181 31.9706 24.4209C31.8084 24.4147 31.6501 24.4714 31.529 24.5791C31.4458 24.6827 31.3938 24.8076 31.3789 24.9394H32.5093Z" fill="#F8F9F8"/>
<path d="M36.2094 25.2206V26.4773C36.2094 26.5006 36.2001 26.5229 36.1835 26.5394C36.167 26.5559 36.1445 26.5651 36.1211 26.5651H35.5117C35.4882 26.5651 35.4658 26.5559 35.4492 26.5394C35.4327 26.5229 35.4233 26.5006 35.4233 26.4773V23.9289C35.4221 23.9166 35.4235 23.9042 35.4274 23.8925C35.4312 23.8808 35.4375 23.8701 35.4459 23.861C35.4542 23.8518 35.4644 23.8446 35.4757 23.8396C35.487 23.8347 35.4993 23.8321 35.5117 23.8322H36.1034C36.1276 23.8344 36.1501 23.8455 36.1664 23.8634C36.1828 23.8813 36.1918 23.9047 36.1917 23.9289V24.0958C36.2746 23.9994 36.3775 23.9219 36.4934 23.8689C36.6093 23.8157 36.7354 23.7882 36.8629 23.7882C37.1093 23.7841 37.3495 23.8649 37.543 24.0167C37.5573 24.034 37.5652 24.0558 37.5652 24.0783C37.5652 24.1007 37.5573 24.1224 37.543 24.1398L37.3222 24.6143C37.3027 24.6316 37.2776 24.6411 37.2515 24.6411C37.2255 24.6411 37.2003 24.6316 37.1809 24.6143C37.0382 24.5151 36.8691 24.4601 36.6952 24.4561C36.28 24.4561 36.1652 24.834 36.1652 25.2031" fill="#F8F9F8"/>
<path d="M41.1559 27.1801C41.266 27.0538 41.3229 26.8901 41.3149 26.7231V26.4595C41.1083 26.5672 40.8767 26.6188 40.6437 26.6089C40.316 26.6113 40 26.4886 39.7605 26.2662C39.6244 26.1234 39.5183 25.9551 39.4486 25.7709C39.3788 25.5868 39.3467 25.3907 39.3542 25.1941C39.3491 24.8123 39.4877 24.4424 39.7428 24.1571C39.8566 24.0378 39.9936 23.9429 40.1454 23.8779C40.2972 23.813 40.4607 23.7794 40.626 23.7793C40.8711 23.783 41.1088 23.8628 41.306 24.0078V23.9287C41.306 23.9164 41.3085 23.9041 41.3135 23.8929C41.3185 23.8816 41.3258 23.8715 41.3349 23.8632C41.3441 23.8549 41.3549 23.8487 41.3667 23.8448C41.3784 23.8409 41.3909 23.8395 41.4032 23.8408H41.9861C41.9984 23.8395 42.0109 23.8409 42.0226 23.8448C42.0344 23.8487 42.0452 23.8549 42.0543 23.8632C42.0635 23.8715 42.0708 23.8816 42.0758 23.8929C42.0807 23.9041 42.0833 23.9164 42.0832 23.9287V26.6265C42.0998 26.8234 42.071 27.0215 41.9991 27.2058C41.9272 27.3901 41.814 27.5556 41.6682 27.6897C41.3771 27.9009 41.0207 28.0035 40.6613 27.9798C40.2804 27.9879 39.9056 27.884 39.5839 27.681C39.5717 27.6644 39.5651 27.6444 39.5651 27.6239C39.5651 27.6033 39.5717 27.5833 39.5839 27.5668L39.8135 27.1098C39.8226 27.1002 39.8335 27.0926 39.8457 27.0874C39.8578 27.0822 39.8709 27.0795 39.8842 27.0795C39.8974 27.0795 39.9105 27.0822 39.9226 27.0874C39.9348 27.0926 39.9457 27.1002 39.9548 27.1098C40.1772 27.265 40.4426 27.3479 40.7143 27.3471C40.8781 27.3561 41.0391 27.3027 41.1647 27.1977L41.1559 27.1801ZM41.3237 25.8092V24.6668C41.1647 24.5408 40.9703 24.4671 40.7673 24.4559C40.6865 24.4503 40.6054 24.4633 40.5304 24.4938C40.4554 24.5242 40.3884 24.5714 40.3346 24.6317C40.2161 24.8021 40.1526 25.0044 40.1526 25.2117C40.1526 25.4189 40.2161 25.6212 40.3346 25.7916C40.3893 25.8484 40.4552 25.8933 40.5281 25.9235C40.601 25.9538 40.6794 25.9687 40.7585 25.9674C40.9627 25.9641 41.1618 25.9032 41.3326 25.7916" fill="#F8F9F8"/>
<path d="M46.1893 26.7319C46.0872 27.0675 45.8983 27.3705 45.6417 27.6107C45.4744 27.7519 45.2803 27.8581 45.071 27.923C44.8616 27.9879 44.6412 28.0102 44.4229 27.9886C44.4133 27.9901 44.4035 27.9893 44.3942 27.9863C44.3849 27.9833 44.3765 27.9782 44.3696 27.9713C44.3628 27.9645 44.3576 27.9561 44.3546 27.9469C44.3516 27.9376 44.3508 27.9279 44.3523 27.9183V27.312C44.3508 27.3024 44.3516 27.2926 44.3546 27.2834C44.3576 27.2741 44.3628 27.2658 44.3696 27.2589C44.3765 27.252 44.3849 27.2469 44.3942 27.2439C44.4035 27.2409 44.4133 27.2401 44.4229 27.2416H44.6084C44.7715 27.2457 44.9308 27.1929 45.0588 27.0922C45.1747 27.0011 45.2708 26.8875 45.3414 26.7583L44.0785 23.9639C44.0785 23.9111 44.0785 23.8408 44.1492 23.8408H44.891C44.9705 23.8408 45.0146 23.8408 45.0412 23.9287L45.7477 25.7741L46.3394 23.9287C46.3394 23.8584 46.4012 23.8408 46.4896 23.8408H47.1696C47.2579 23.8408 47.2579 23.9111 47.2402 23.9639L46.1893 26.7319Z" fill="#F8F9F8"/>
<path d="M53.4673 25.8005C53.4673 25.6687 53.3609 25.6159 53.2021 25.5544C53.0433 25.493 52.8224 25.4138 52.6281 25.3172C52.4893 25.2564 52.3725 25.1547 52.2936 25.0259C52.2146 24.897 52.1772 24.7472 52.1865 24.5966C52.1865 24.0957 52.5751 23.7793 53.2815 23.7793C53.6065 23.7687 53.9289 23.8413 54.2179 23.9902C54.2269 23.9977 54.2343 24.0071 54.2396 24.0177C54.2449 24.0283 54.2475 24.04 54.2475 24.0518C54.2475 24.0636 54.2449 24.0752 54.2396 24.0859C54.2343 24.0965 54.2269 24.1059 54.2179 24.1133L54.0056 24.5526C54.0056 24.5526 53.9442 24.6054 53.8908 24.5526C53.7034 24.4435 53.4901 24.3859 53.273 24.3857C53.1137 24.3857 52.9903 24.4384 52.9903 24.5702C52.9903 24.702 53.1137 24.7547 53.255 24.8075C53.3964 24.8602 53.6261 24.9393 53.8114 25.036C53.949 25.0891 54.0665 25.1838 54.1475 25.3067C54.228 25.4296 54.2682 25.5746 54.2618 25.7214C54.2618 26.2223 53.8294 26.6001 53.1317 26.6001C52.7838 26.6187 52.438 26.5395 52.1335 26.3717C52.1244 26.3652 52.1169 26.3566 52.1118 26.3467C52.1067 26.3367 52.104 26.3257 52.104 26.3146C52.104 26.3034 52.1067 26.2924 52.1118 26.2825C52.1169 26.2726 52.1244 26.264 52.1335 26.2575L52.3543 25.8005C52.3617 25.7928 52.3706 25.7867 52.3805 25.7824C52.3903 25.7783 52.401 25.7761 52.4117 25.7761C52.4224 25.7761 52.433 25.7783 52.4429 25.7824C52.4528 25.7867 52.4617 25.7928 52.4691 25.8005C52.6707 25.9356 52.9063 26.0117 53.1492 26.0202C53.3434 26.0202 53.4673 25.9499 53.4673 25.8093" fill="#F8F9F8"/>
<path d="M57.3522 25.4928C57.3448 25.5989 57.3665 25.7051 57.4141 25.8004C57.4401 25.8493 57.4798 25.8895 57.5285 25.9161C57.5772 25.9426 57.6328 25.9544 57.6878 25.9497C57.8328 25.9423 57.9715 25.89 58.0853 25.8004C58.1383 25.8004 58.1912 25.8004 58.2087 25.8004L58.421 26.2397C58.4352 26.2571 58.4432 26.2788 58.4432 26.3012C58.4432 26.3237 58.4352 26.3455 58.421 26.3628C58.1563 26.5279 57.8503 26.6161 57.5375 26.6176C57.4094 26.627 57.2802 26.6083 57.1595 26.5627C57.0388 26.5172 56.9298 26.4459 56.8398 26.354C56.6799 26.132 56.6021 25.862 56.6191 25.5894V24.447H56.257C56.2332 24.4449 56.2104 24.4337 56.194 24.4158C56.1776 24.398 56.1686 24.3746 56.1686 24.3504V23.9198C56.1686 23.8965 56.1781 23.8741 56.1945 23.8577C56.2115 23.8412 56.2337 23.8319 56.257 23.8319H56.5222V23.3047C56.5222 23.2805 56.5312 23.2571 56.5476 23.2393C56.5635 23.2213 56.5862 23.2102 56.6106 23.208H57.2289C57.241 23.208 57.2532 23.2105 57.2649 23.2154C57.276 23.2204 57.286 23.2276 57.2945 23.2368C57.303 23.2459 57.3088 23.2567 57.313 23.2684C57.3167 23.28 57.3183 23.2924 57.3167 23.3047V23.8407H58.0763C58.0885 23.8393 58.1007 23.8406 58.1118 23.8445C58.1235 23.8484 58.1335 23.8549 58.142 23.8634C58.1505 23.8718 58.1568 23.8821 58.161 23.8934C58.1647 23.9046 58.1663 23.9167 58.1647 23.9286V24.3592C58.1658 24.3714 58.1647 24.3838 58.1605 24.3955C58.1568 24.4072 58.1505 24.418 58.1425 24.4271C58.134 24.4362 58.124 24.4435 58.1123 24.4484C58.1012 24.4534 58.089 24.4559 58.0763 24.4558H57.3167L57.3522 25.4928Z" fill="#F8F9F8"/>
<path d="M61.6992 23.7792C61.9797 23.7895 62.2508 23.8817 62.4789 24.0443C62.7071 24.2069 62.8823 24.4327 62.9823 24.6935C63.0829 24.9544 63.1035 25.2388 63.0427 25.5114C62.9813 25.784 62.841 26.0327 62.6393 26.2266C62.4371 26.4204 62.182 26.5509 61.9062 26.6017C61.6304 26.6525 61.3451 26.6213 61.0867 26.5122C60.8284 26.4031 60.6082 26.2208 60.4531 25.9879C60.298 25.7551 60.2154 25.482 60.2154 25.2028C60.2101 25.0099 60.2451 24.818 60.3187 24.6394C60.3917 24.4607 60.5018 24.2993 60.6416 24.1653C60.7813 24.0314 60.9475 23.9278 61.1296 23.8614C61.3117 23.7949 61.5054 23.7669 61.6992 23.7792ZM61.6992 25.9673C61.8876 25.9471 62.0618 25.8583 62.1883 25.718C62.3148 25.5777 62.3852 25.3958 62.3852 25.2072C62.3852 25.0186 62.3148 24.8366 62.1883 24.6963C62.0618 24.556 61.8876 24.4672 61.6992 24.447C61.5107 24.4672 61.3361 24.556 61.2095 24.6963C61.083 24.8366 61.0132 25.0186 61.0132 25.2072C61.0132 25.3958 61.083 25.5777 61.2095 25.718C61.3361 25.8583 61.5107 25.9471 61.6992 25.9673Z" fill="#F8F9F8"/>
<path d="M66.1573 25.2207V26.4773C66.1573 26.5006 66.1483 26.523 66.1314 26.5394C66.115 26.5559 66.0928 26.5652 66.0689 26.5652H65.4597C65.4353 26.5653 65.412 26.5563 65.394 26.54C65.376 26.5238 65.3649 26.5014 65.3628 26.4773V23.9289C65.3628 23.9032 65.3728 23.8787 65.3908 23.8606C65.4094 23.8424 65.4337 23.8322 65.4597 23.8322H66.0425C66.0684 23.8322 66.0933 23.8424 66.1113 23.8606C66.1293 23.8787 66.1399 23.9032 66.1399 23.9289V24.0958C66.2225 23.9994 66.3257 23.922 66.4416 23.8689C66.5575 23.8158 66.6835 23.7883 66.8111 23.7883C67.0546 23.7832 67.2928 23.8642 67.4823 24.0168C67.4966 24.0341 67.5045 24.0558 67.5045 24.0783C67.5045 24.1007 67.4966 24.1225 67.4823 24.1398L67.2526 24.6143C67.2526 24.6583 67.1732 24.667 67.1202 24.6143C66.9773 24.5151 66.8084 24.4601 66.6343 24.4561C66.2193 24.4561 66.1044 24.834 66.1044 25.2031" fill="#F8F9F8"/>
<path d="M69.7177 24.6052C69.6558 24.6052 69.6203 24.6052 69.5849 24.6052L69.4171 24.2273C69.4171 24.1745 69.4171 24.1394 69.4171 24.1043C69.7553 23.9084 70.1391 23.8053 70.5303 23.8055C70.6912 23.7944 70.8532 23.8169 71.0051 23.8713C71.157 23.9258 71.2962 24.0111 71.4132 24.1218C71.5879 24.3203 71.6769 24.5792 71.6604 24.8424V26.5033C71.6583 26.5274 71.6472 26.5497 71.6292 26.566C71.6112 26.5823 71.5879 26.5912 71.5636 26.5911H71.0337C71.0093 26.5912 70.9855 26.5823 70.9675 26.566C70.9495 26.5497 70.9384 26.5274 70.9363 26.5033V26.4506C70.7193 26.5929 70.4631 26.6636 70.2031 26.6527C69.9692 26.657 69.741 26.5792 69.5584 26.433C69.4705 26.3554 69.4007 26.259 69.3546 26.151C69.3091 26.043 69.2879 25.9261 69.2937 25.809C69.2932 25.6576 69.3408 25.5098 69.4298 25.3868C69.5182 25.2637 69.6436 25.1717 69.7881 25.1236C70.1391 24.993 70.5091 24.9189 70.8834 24.9039V24.8424C70.8924 24.7327 70.8606 24.6234 70.795 24.5348C70.7516 24.494 70.7002 24.4627 70.6441 24.443C70.5875 24.4233 70.5276 24.4157 70.4684 24.4206C70.2016 24.4263 69.9401 24.4989 69.7087 24.6315L69.7177 24.6052ZM70.8834 25.9497V25.4136C70.5213 25.4136 70.0533 25.4663 70.0533 25.7651C70.0533 26.0639 70.2386 26.0375 70.4594 26.0375C70.6086 26.0403 70.7558 26.0007 70.8834 25.9233" fill="#F8F9F8"/>
<path d="M75.6268 27.1799C75.737 27.0535 75.7936 26.8899 75.7857 26.7229V26.4593C75.5792 26.567 75.3479 26.6185 75.1144 26.6087C74.7868 26.6111 74.4708 26.4884 74.2315 26.2659C74.0954 26.1232 73.989 25.9548 73.9197 25.7707C73.8498 25.5866 73.8175 25.3905 73.825 25.1938C73.8175 24.8132 73.9531 24.4435 74.205 24.1569C74.3236 24.0321 74.4681 23.9339 74.628 23.8688C74.7878 23.8036 74.9599 23.773 75.1324 23.7791C75.3775 23.7827 75.6152 23.8626 75.8121 24.0075V23.9285C75.8121 23.9169 75.8148 23.9055 75.819 23.8948C75.8232 23.8842 75.8301 23.8745 75.8381 23.8663C75.8465 23.8581 75.8561 23.8517 75.8666 23.8473C75.8778 23.8428 75.8889 23.8406 75.9005 23.8406H76.4923C76.5045 23.8394 76.5172 23.8407 76.5289 23.8446C76.5405 23.8484 76.5516 23.8547 76.5606 23.863C76.5696 23.8713 76.577 23.8814 76.5818 23.8927C76.5871 23.9039 76.5897 23.9161 76.5897 23.9285V26.6262C76.6061 26.8232 76.577 27.0214 76.5056 27.2056C76.4336 27.3898 76.3203 27.5553 76.1742 27.6896C75.8836 27.9006 75.5268 28.0033 75.1674 27.9795C74.7868 27.9877 74.412 27.8838 74.0902 27.6808C74.078 27.6642 74.0711 27.6442 74.0711 27.6236C74.0711 27.6031 74.078 27.5831 74.0902 27.5665L74.3199 27.1096C74.3289 27.1 74.34 27.0924 74.3522 27.0872C74.3638 27.0819 74.3771 27.0793 74.3903 27.0793C74.4035 27.0793 74.4168 27.0819 74.4289 27.0872C74.4411 27.0924 74.4522 27.1 74.4612 27.1096C74.6836 27.2648 74.9488 27.3477 75.2208 27.3468C75.3844 27.3558 75.5453 27.3024 75.6708 27.1974L75.6268 27.1799ZM75.8301 25.809V24.6666C75.6708 24.5406 75.4765 24.4669 75.2738 24.4557C75.1928 24.4501 75.1118 24.4631 75.0366 24.4935C74.9615 24.524 74.8948 24.5712 74.8408 24.6314C74.7222 24.8019 74.6587 25.0042 74.6587 25.2115C74.6587 25.4187 74.7222 25.621 74.8408 25.7914C74.8953 25.8482 74.9615 25.8931 75.0345 25.9233C75.107 25.9535 75.1859 25.9685 75.2648 25.9672C75.4691 25.9654 75.6687 25.9043 75.8386 25.7914" fill="#F8F9F8"/>
<path d="M80.9685 25.8532C81.0394 25.8532 81.0833 25.8532 81.1098 25.8532L81.3221 26.2399C81.3364 26.2572 81.3443 26.279 81.3443 26.3014C81.3443 26.3239 81.3364 26.3456 81.3221 26.3629C81.0108 26.5516 80.653 26.6491 80.2888 26.6442C80.0882 26.653 79.8881 26.6218 79.7002 26.5523C79.5117 26.4829 79.3397 26.3767 79.1936 26.2399C78.9326 25.9604 78.7881 25.5931 78.7881 25.2118C78.7881 24.8304 78.9326 24.4632 79.1936 24.1836C79.3259 24.0542 79.4836 23.9532 79.6567 23.8867C79.8298 23.8201 80.0151 23.7896 80.2004 23.7969C80.4047 23.7854 80.6085 23.8234 80.7943 23.9076C80.9806 23.9918 81.1437 24.1197 81.2691 24.2803C81.4639 24.6089 81.5502 24.9899 81.5163 25.37C81.5179 25.3818 81.5163 25.3939 81.5126 25.4052C81.5084 25.4165 81.502 25.4267 81.4936 25.4352C81.4851 25.4436 81.4745 25.4501 81.4634 25.454C81.4518 25.4579 81.4401 25.4592 81.4279 25.4578H79.6615C79.6864 25.5934 79.751 25.7187 79.8473 25.8181C79.9193 25.8854 80.004 25.9379 80.0961 25.9726C80.1887 26.0073 80.2872 26.0235 80.3857 26.0202C80.6191 26.0166 80.8472 25.953 81.0484 25.8357L80.9685 25.8532ZM80.7832 24.9569C80.7816 24.8253 80.7345 24.6983 80.6509 24.5967C80.5979 24.5435 80.5344 24.5021 80.4645 24.4748C80.3947 24.4475 80.3195 24.4352 80.2443 24.4385C80.1654 24.4341 80.086 24.446 80.0119 24.4731C79.9373 24.5004 79.8695 24.5424 79.8118 24.5967C79.725 24.698 79.6721 24.8241 79.6615 24.9569H80.7832Z" fill="#F8F9F8"/>
<path d="M33.6309 0.0351604C31.7894 0.0334221 29.9889 0.575163 28.4569 1.59184C26.9249 2.60853 25.7304 4.05447 25.0245 5.74675C24.3187 7.43903 24.133 9.30166 24.4912 11.0989C24.8494 12.8961 25.7352 14.5473 27.0367 15.8436C28.3382 17.1398 29.9969 18.0228 31.8028 18.3809C33.6087 18.739 35.4808 18.5561 37.1823 17.8553C38.8837 17.1545 40.338 15.9674 41.3613 14.444C42.3845 12.9207 42.9307 11.1296 42.9307 9.29733C42.9318 8.0814 42.6921 6.87721 42.2253 5.75353C41.7585 4.62983 41.0736 3.60871 40.21 2.74852C39.3463 1.88834 38.3207 1.20595 37.1918 0.740373C36.0629 0.274797 34.8529 0.0351599 33.6309 0.0351604ZM33.6309 15.062C32.4825 15.0637 31.3595 14.7264 30.4039 14.0927C29.4483 13.459 28.7032 12.5573 28.263 11.502C27.8227 10.4467 27.7071 9.28512 27.9307 8.16437C28.1543 7.04357 28.7071 6.01406 29.5191 5.20608C30.3311 4.39812 31.3659 3.84807 32.4922 3.62558C33.6186 3.40309 34.786 3.51817 35.8466 3.95624C36.9072 4.3943 37.8134 5.13567 38.4503 6.08646C39.0872 7.03727 39.4262 8.15471 39.4245 9.29733C39.4245 10.8262 38.8141 12.2925 37.7276 13.3736C36.6411 14.4547 35.1675 15.062 33.6309 15.062Z" fill="#F8F9F8"/>
</g>
<defs>
<clipPath id="clip0_11_4131">
<rect width="102" height="28" fill="white"/>
</clipPath>
</defs>
</svg>
