<svg width="58" height="13" viewBox="0 0 58 13" fill="none" xmlns="http://www.w3.org/2000/svg">
<path d="M21.0066 10.7708C18.6062 10.7708 16.8724 8.81844 16.8724 6.41804C16.8724 4.01765 18.5807 1.95601 21.0794 1.95601C22.1868 1.95601 22.9735 2.21463 23.6583 2.6408V4.74979H25.7236V1.67554L25.3266 1.36593C24.1901 0.473522 22.4563 0 21.0066 0C17.4661 0 14.5885 2.87756 14.5885 6.41804C14.5885 9.95853 17.4661 12.8361 21.0066 12.8361C23.2176 12.8361 24.8822 11.9145 26.1097 10.3119L24.4706 9.05884C23.6365 10.1479 22.3762 10.7708 21.0066 10.7708ZM55.9598 10.6615L55.887 7.70384V0.488092H51.5815V2.55338H53.7124V7.44522C53.7124 9.55422 52.0988 11.044 50.4742 11.044C48.8497 11.044 48.001 9.91846 48.001 7.80947V0.488092H43.9797V2.55338H45.8264V8.17372C45.8264 11.0331 47.4291 13 50.2921 13C51.9349 13 53.1879 12.093 53.9346 10.6834H53.9674L54.2624 12.6503H57.5698V10.6579H55.9598V10.6615ZM7.40558 9.36117H7.35823L4.2512 0.302326H0.430237V2.36761H2.5793L6.28006 12.694H8.24699V12.6904L12.1044 2.36761H14.1114V0.302326H10.5272L7.40558 9.36117ZM27.7415 12.7159H29.8651V10.5923H27.7415V12.7159ZM35.9517 2.8812H35.9262L35.7914 0.488092H31.9959V2.37125H34.0175V10.6579H31.9959V12.6503H41.3717V10.6943H36.1557V5.69319C36.3924 3.88288 37.7474 2.33483 39.6014 2.33483H39.6342L39.5978 4.18521H41.6631V0.448025H40.0349C38.1627 0.448025 36.7749 1.46063 35.9517 2.8812Z" fill="#F8F9F8"/>
</svg>
