<svg width="32" height="31" viewBox="0 0 32 31" fill="none" xmlns="http://www.w3.org/2000/svg">
<path d="M18.8975 15.2577C18.4131 15.0756 18.4131 14.3801 18.3831 13.8957C18.262 12.1703 18.8675 9.5363 18.1409 8.41643C17.6265 7.74993 15.1436 7.81096 13.6304 7.90202C13.2061 7.96305 12.6917 8.05314 12.3284 8.23527C11.9651 8.41739 11.6018 8.71964 11.6018 8.99186C11.6018 9.38518 12.5105 9.32511 12.8428 9.83952C13.2061 10.3849 13.2061 11.5649 13.2061 12.5336C13.2061 13.6535 13.024 15.1376 12.5706 15.1977C11.8741 15.2277 11.4807 14.5312 11.1175 14.0168C10.3909 13.018 9.66433 11.7761 9.11893 10.5651C8.84671 9.92961 8.69461 9.23308 8.3013 8.96086C7.69583 8.53655 6.60599 8.50652 5.54618 8.53655C4.57743 8.56658 3.18436 8.44549 2.91214 9.02093C2.69999 9.65643 3.15433 10.2619 3.39652 10.7773C4.63749 13.4714 5.96952 15.8332 7.60477 18.0729C9.11893 20.1616 10.5411 21.8268 13.3262 22.7045C14.1138 22.9467 17.5645 23.6432 18.261 22.7045C18.5032 22.3412 18.4431 21.5236 18.5642 20.9181C18.6853 20.3127 18.8365 19.7072 19.4119 19.6772C19.8963 19.6471 20.1685 20.0705 20.4717 20.3737C20.805 20.707 21.0772 20.9792 21.3194 21.2824C21.8948 21.8578 22.5003 22.6445 23.2268 22.9477C24.2256 23.372 25.7698 23.2509 27.2229 23.1899C28.4038 23.1598 29.2515 22.9176 29.3426 22.2211C29.4036 21.6757 28.7971 20.8891 28.4339 20.4347C27.5252 19.3149 27.1018 18.9816 26.0721 17.9518C25.6177 17.4975 25.0423 17.0131 25.0423 16.4687C25.0122 16.1354 25.2845 15.8332 25.5266 15.4999C26.5865 13.9257 27.6463 12.8058 28.615 11.1706C28.8872 10.6862 29.5237 9.56633 29.2815 9.02093C29.0093 8.41546 27.4951 8.59661 26.5564 8.59661C25.3455 8.59661 23.7713 8.50555 23.4681 8.74774C22.8926 9.14105 22.6504 9.77752 22.3782 10.383C21.7727 11.7761 20.9551 13.1982 20.1075 14.258C19.8042 14.6213 19.2298 15.3779 18.8965 15.2568L18.8975 15.2577Z" fill="#F8F9F8"/>
</svg>
