<svg width="21" height="21" viewBox="0 0 21 21" fill="none" xmlns="http://www.w3.org/2000/svg">
<g clip-path="url(#clip0_11_4114)">
<path d="M12.3588 12.4286C10.7874 14.05 10.6731 16.0714 10.5374 20.5C14.666 20.5 17.516 20.4857 18.9874 19.0571C20.416 17.5857 20.4302 14.6 20.4302 10.6071C16.0017 10.75 13.9802 10.8571 12.3588 12.4286ZM0.430237 10.6071C0.430237 14.6 0.444523 17.5857 1.87309 19.0571C3.34452 20.4857 6.19452 20.5 10.3231 20.5C10.1802 16.0714 10.0731 14.05 8.50167 12.4286C6.88024 10.8571 4.85881 10.7429 0.430237 10.6071ZM10.3231 0.5C6.20167 0.5 3.34452 0.514286 1.87309 1.94286C0.444523 3.41429 0.430237 6.4 0.430237 10.3929C4.85881 10.25 6.88024 10.1429 8.50167 8.57143C10.0731 6.95 10.1874 4.92857 10.3231 0.5ZM12.3588 8.57143C10.7874 6.95 10.6731 4.92857 10.5374 0.5C14.666 0.5 17.516 0.514286 18.9874 1.94286C20.416 3.41429 20.4302 6.4 20.4302 10.3929C16.0017 10.25 13.9802 10.1429 12.3588 8.57143Z" fill="#F8F9F8"/>
<path d="M20.4302 10.6071V10.3929C16.0017 10.25 13.9802 10.1429 12.3588 8.57143C10.7874 6.95 10.6731 4.92857 10.5374 0.5H10.3231C10.1802 4.92857 10.0731 6.95 8.50167 8.57143C6.88024 10.1429 4.85881 10.2571 0.430237 10.3929V10.6071C4.85881 10.75 6.88024 10.8571 8.50167 12.4286C10.0731 14.05 10.1874 16.0714 10.3231 20.5H10.5374C10.6802 16.0714 10.7874 14.05 12.3588 12.4286C13.9802 10.8571 16.0017 10.7429 20.4302 10.6071Z" fill="#2F46A0"/>
</g>
<defs>
<clipPath id="clip0_11_4114">
<rect width="20" height="20" fill="white" transform="translate(0.430237 0.5)"/>
</clipPath>
</defs>
</svg>
