<svg width="26" height="25" viewBox="0 0 26 25" fill="none" xmlns="http://www.w3.org/2000/svg">
<g clip-path="url(#clip0_11_4109)">
<path fill-rule="evenodd" clip-rule="evenodd" d="M10.4158 15.7326V8.71787C12.906 9.88966 14.8347 11.0216 17.1158 12.242C15.2344 13.2854 12.906 14.4561 10.4158 15.7326ZM24.294 5.2291C23.8644 4.66315 23.1323 4.22261 22.3528 4.07676C20.0618 3.6417 5.76897 3.64046 3.47918 4.07676C2.85412 4.19394 2.29753 4.47717 1.8194 4.91722C-0.195216 6.78709 0.43607 16.8146 0.921671 18.4389C1.12587 19.142 1.38985 19.6491 1.7223 19.9819C2.15062 20.4219 2.73707 20.7249 3.41068 20.8608C5.29705 21.251 15.0153 21.4692 22.313 20.9194C22.9854 20.8022 23.5805 20.4895 24.0499 20.0307C25.9126 18.1683 25.7857 7.57767 24.294 5.2291Z" fill="#F8F9F8"/>
</g>
<defs>
<clipPath id="clip0_11_4109">
<rect width="25" height="25" fill="white" transform="translate(0.430237)"/>
</clipPath>
</defs>
</svg>
