<svg width="9" height="9" viewBox="0 0 9 9" fill="none" xmlns="http://www.w3.org/2000/svg">
<g clip-path="url(#clip0_11_4404)">
<path d="M8.83004 4.10231L4.89254 0.164813C4.78271 0.0549844 4.63871 0 4.49485 0C4.35099 0 4.20699 0.0549844 4.09717 0.164813L0.159666 4.10231C-0.0599906 4.32253 -0.0490219 4.66706 0.170634 4.88672C0.390853 5.1075 0.712744 5.13998 0.933103 4.91963L1.1252 4.72739V8.4375C1.1252 8.74842 1.37678 9 1.6877 9H3.9377V6.75H5.0627V9H7.3127C7.62362 9 7.8752 8.74842 7.8752 8.4375V4.73836L8.04324 4.90641C8.2629 5.12606 8.59857 5.10638 8.81893 4.88658C9.03873 4.66706 9.05026 4.32197 8.83004 4.10231Z" fill="#111214"/>
</g>
<defs>
<clipPath id="clip0_11_4404">
<rect width="9" height="9" fill="white"/>
</clipPath>
</defs>
</svg>
