<svg width="80" height="22" viewBox="0 0 80 22" fill="none" xmlns="http://www.w3.org/2000/svg">
<path fill-rule="evenodd" clip-rule="evenodd" d="M7.40481 3.89327L5.54146 0.763427C5.43829 0.598162 5.29456 0.461611 5.12375 0.366565C4.95291 0.27152 4.7606 0.22109 4.5648 0.220001H0L6.23414 14.349H8.63082L14.865 0.220001H10.3902C10.1944 0.22109 10.0021 0.27152 9.83129 0.366565C9.66049 0.461611 9.51676 0.598162 9.41359 0.763427L7.40481 3.89327ZM4.91803 4.41605L7.40481 8.54331L9.93309 4.41605L7.40481 10.1048L4.91803 4.41605Z" fill="url(#paint0_linear_2021_67)"/>
<path fill-rule="evenodd" clip-rule="evenodd" d="M26.364 2.8203C25.3273 2.8219 24.3231 3.1804 23.5227 3.83475C22.7222 4.4891 22.175 5.39881 21.9742 6.40887C21.7734 7.41898 21.9314 8.46692 22.4214 9.37425C22.9114 10.2816 23.703 10.9921 24.6614 11.3849C25.6198 11.7776 26.6856 11.8283 27.6774 11.5281C28.6691 11.228 29.5254 10.5957 30.1004 9.73897C30.6753 8.88222 30.9334 7.85403 30.8305 6.82952C30.7277 5.80504 30.2704 4.8476 29.5365 4.12039C28.6942 3.2868 27.5532 2.81922 26.364 2.8203ZM26.364 14.5142C24.6726 14.5158 23.033 13.9347 21.7248 12.8699C20.4166 11.8053 19.5209 10.3228 19.1903 8.67553C18.8597 7.02827 19.1147 5.31812 19.9119 3.83668C20.7091 2.35527 21.9991 1.19434 23.5619 0.551859C25.1247 -0.0906159 26.8635 -0.174852 28.4819 0.313516C30.1002 0.801884 31.4979 1.83261 32.4365 3.22994C33.3751 4.62726 33.7966 6.30467 33.629 7.97607C33.4614 9.64751 32.7152 11.2094 31.5176 12.3955C30.8427 13.0705 30.0398 13.606 29.1551 13.9708C28.2705 14.3357 27.3219 14.5227 26.364 14.5211V14.5142ZM70.3356 14.3354V11.5495H75.8769C76.2609 11.5487 76.6292 11.398 76.9024 11.1298C77.0373 10.9967 77.1444 10.8381 77.2171 10.6633C77.2897 10.4884 77.3263 10.3009 77.3246 10.1118C77.3246 9.72987 77.1727 9.36347 76.9011 9.0928C76.63 8.82208 76.2618 8.66906 75.8769 8.66726H74.1867C73.6134 8.69023 73.0413 8.59794 72.5048 8.39584C71.968 8.19379 71.4781 7.88611 71.0642 7.49135C70.6503 7.09656 70.321 6.62279 70.096 6.09848C69.871 5.57421 69.7552 5.01015 69.7552 4.44024C69.7552 3.87034 69.871 3.30631 70.096 2.78201C70.321 2.25771 70.6503 1.78395 71.0642 1.38917C71.4781 0.994387 71.968 0.686727 72.5048 0.484656C73.0413 0.282584 73.6134 0.190265 74.1867 0.213242H79.3544V2.99915H74.1867C73.8193 3.02438 73.4751 3.18717 73.2239 3.45466C72.9723 3.72214 72.8324 4.07438 72.8324 4.44024C72.8324 4.80613 72.9723 5.15837 73.2239 5.42583C73.4751 5.69333 73.8193 5.85612 74.1867 5.88135H75.9118C77.0107 5.92541 78.0503 6.38999 78.8122 7.17791C79.5744 7.96579 80 9.01591 80 10.1084C80 11.2008 79.5744 12.2509 78.8122 13.0388C78.0503 13.8267 77.0107 14.2913 75.9118 14.3354H70.3356ZM57.7566 14.3354V2.99915H53.6767V0.213242H64.6419V2.99915H60.5686V14.3354H57.7566ZM39.1371 14.3354V0.213242H41.9077V11.5495H49.3751V14.3354H39.1371ZM26.364 2.8203C27.3968 2.82479 28.3961 3.18446 29.1919 3.83811C29.9878 4.49177 30.531 5.39906 30.7292 6.40557C30.9274 7.41213 30.7683 8.45577 30.2791 9.359C29.7898 10.2622 29.0006 10.9692 28.0456 11.3597C27.0906 11.7502 26.0289 11.8001 25.041 11.5009C24.0532 11.2017 23.2002 10.5718 22.6273 9.71855C22.0543 8.86523 21.7967 7.84117 21.8983 6.82054C21.9999 5.79991 22.4545 4.84576 23.1846 4.12039C23.6016 3.70558 24.0974 3.37708 24.6431 3.15391C25.1889 2.93075 25.7738 2.81735 26.364 2.8203ZM26.364 14.5142C24.6726 14.5158 23.033 13.9347 21.7248 12.8699C20.4166 11.8053 19.5209 10.3228 19.1903 8.67553C18.8597 7.02827 19.1147 5.31812 19.9119 3.83668C20.7091 2.35527 21.9991 1.19434 23.5619 0.551859C25.1247 -0.0906159 26.8635 -0.174852 28.4819 0.313516C30.1002 0.801884 31.4979 1.83261 32.4365 3.22994C33.3751 4.62726 33.7966 6.30467 33.629 7.97607C33.4614 9.64751 32.7152 11.2094 31.5176 12.3955C30.8427 13.0705 30.0398 13.606 29.1551 13.9708C28.2705 14.3357 27.3219 14.5227 26.364 14.5211" fill="url(#paint1_linear_2021_67)"/>
<path d="M18.0096 20.2373C18.0581 20.2373 18.0996 20.2373 18.1135 20.2373L18.2797 20.54C18.2871 20.5575 18.2877 20.577 18.2813 20.5948C18.2749 20.6127 18.262 20.6275 18.2451 20.6363C18.0015 20.7847 17.7204 20.8611 17.4346 20.8565C17.1321 20.8526 16.8423 20.7345 16.6242 20.5263C16.5188 20.4167 16.4368 20.2871 16.3832 20.1452C16.3296 20.0033 16.3056 19.8522 16.3125 19.7008C16.3065 19.5553 16.3312 19.4102 16.385 19.2747C16.4387 19.1392 16.5203 19.0164 16.6247 18.9141C16.729 18.8118 16.8537 18.7322 16.9908 18.6805C17.1279 18.6288 17.2744 18.6062 17.4208 18.614C17.5799 18.6049 17.7388 18.6346 17.8837 18.7006C18.0286 18.7665 18.155 18.8666 18.252 18.9923C18.4108 19.2473 18.4813 19.5468 18.4529 19.8453C18.454 19.8546 18.453 19.864 18.4499 19.8728C18.4468 19.8817 18.4417 19.8897 18.4351 19.8963C18.4284 19.903 18.4203 19.908 18.4114 19.9111C18.4025 19.9141 18.393 19.9151 18.3836 19.9141H16.9982C17.0124 20.0205 17.0611 20.1194 17.1368 20.1961C17.2513 20.3018 17.403 20.3587 17.5593 20.3543C17.7162 20.348 17.8697 20.3081 18.0096 20.2373ZM17.8018 19.5495C17.7969 19.4471 17.7607 19.3487 17.6979 19.2675C17.6546 19.2264 17.6035 19.1942 17.5476 19.173C17.4917 19.1517 17.4321 19.1417 17.3723 19.1436C17.2473 19.1399 17.1257 19.1843 17.0329 19.2675C16.9676 19.3485 16.9268 19.4463 16.9151 19.5495H17.8018Z" fill="url(#paint2_linear_2021_67)"/>
<path d="M20.7323 18.8617C20.8157 18.7762 20.9159 18.7089 21.0268 18.6639C21.1377 18.6189 21.2568 18.5972 21.3765 18.6003C21.6062 18.5895 21.8315 18.6657 22.0068 18.8135C22.0968 18.9029 22.1657 19.0109 22.2088 19.1298C22.2519 19.2487 22.2681 19.3756 22.2562 19.5014V20.7258C22.2562 20.7441 22.2489 20.7616 22.2359 20.7745C22.2229 20.7874 22.2053 20.7946 22.1869 20.7946H21.7021C21.6842 20.7931 21.6675 20.7853 21.6548 20.7727C21.6421 20.7601 21.6344 20.7435 21.6328 20.7258V19.6596C21.6472 19.5154 21.6077 19.371 21.5219 19.2538C21.4862 19.2151 21.442 19.1851 21.3928 19.166C21.3436 19.147 21.2906 19.1393 21.238 19.1437C20.8708 19.1437 20.7323 19.4876 20.7323 19.7903V20.7258C20.7323 20.7441 20.725 20.7616 20.712 20.7745C20.699 20.7874 20.6814 20.7946 20.663 20.7946H20.1782C20.1598 20.7946 20.1422 20.7874 20.1292 20.7745C20.1162 20.7616 20.1089 20.7441 20.1089 20.7258V18.731C20.1078 18.7217 20.1088 18.7122 20.1119 18.7034C20.115 18.6945 20.12 18.6865 20.1267 18.6799C20.1334 18.6733 20.1415 18.6682 20.1504 18.6652C20.1593 18.6621 20.1688 18.6611 20.1782 18.6622H20.6423C20.6516 18.6611 20.6611 18.6621 20.67 18.6652C20.6789 18.6682 20.687 18.6733 20.6937 18.6799C20.7004 18.6865 20.7054 18.6945 20.7085 18.7034C20.7116 18.7122 20.7126 18.7217 20.7115 18.731V18.8617H20.7323Z" fill="url(#paint3_linear_2021_67)"/>
<path d="M25.6638 20.2373C25.7123 20.2373 25.7538 20.2373 25.7746 20.2373L25.9339 20.54C25.9441 20.554 25.9495 20.5709 25.9495 20.5882C25.9495 20.6055 25.9441 20.6223 25.9339 20.6363C25.6874 20.7839 25.4044 20.8601 25.1166 20.8565C24.9562 20.8622 24.7964 20.836 24.6465 20.7793C24.4966 20.7226 24.3596 20.6365 24.2438 20.5263C24.1384 20.4167 24.0564 20.2871 24.0028 20.1452C23.9492 20.0033 23.9252 19.8522 23.9321 19.7008C23.9261 19.5553 23.9508 19.4102 24.0045 19.2747C24.0583 19.1392 24.14 19.0164 24.2443 18.9141C24.3486 18.8118 24.4733 18.7322 24.6104 18.6805C24.7475 18.6288 24.894 18.6062 25.0404 18.614C25.1995 18.6049 25.3585 18.6346 25.5033 18.7006C25.6482 18.7665 25.7747 18.8666 25.8716 18.9923C26.0304 19.2473 26.1009 19.5468 26.0725 19.8453C26.0736 19.8546 26.0726 19.864 26.0695 19.8728C26.0664 19.8817 26.0613 19.8897 26.0547 19.8963C26.048 19.903 26.0399 19.908 26.031 19.9111C26.0221 19.9141 26.0126 19.9151 26.0032 19.9141H24.6178C24.6349 20.0211 24.6858 20.1198 24.7633 20.1961C24.8183 20.2489 24.8835 20.2901 24.9549 20.3173C25.0263 20.3445 25.1025 20.3571 25.1789 20.3543C25.3639 20.3514 25.5451 20.3017 25.7054 20.2098L25.6638 20.2373ZM25.4975 19.522C25.4927 19.4196 25.4564 19.3212 25.3937 19.2399C25.3519 19.1987 25.3021 19.1664 25.2473 19.1451C25.1925 19.1238 25.1338 19.114 25.075 19.1161C24.9478 19.1113 24.8236 19.1557 24.7287 19.2399C24.6634 19.321 24.6226 19.4188 24.6109 19.522H25.4975Z" fill="url(#paint4_linear_2021_67)"/>
<path d="M28.3995 19.7421V20.7257C28.3995 20.744 28.3922 20.7615 28.3793 20.7744C28.3663 20.7873 28.3486 20.7945 28.3303 20.7945H27.8523C27.8339 20.7945 27.8163 20.7873 27.8033 20.7744C27.7903 20.7615 27.783 20.744 27.783 20.7257V18.7309C27.7821 18.7213 27.7832 18.7116 27.7862 18.7025C27.7892 18.6933 27.7942 18.6849 27.8007 18.6777C27.8072 18.6706 27.8152 18.6649 27.8241 18.661C27.833 18.6572 27.8426 18.6552 27.8523 18.6552H28.3164C28.3354 18.6569 28.353 18.6657 28.3659 18.6797C28.3787 18.6937 28.3857 18.712 28.3857 18.7309V18.8616C28.4507 18.7861 28.5314 18.7255 28.6223 18.6839C28.7132 18.6423 28.8121 18.6208 28.9121 18.6208C29.1054 18.6176 29.2938 18.6808 29.4455 18.7997C29.4567 18.8132 29.4629 18.8303 29.4629 18.8479C29.4629 18.8654 29.4567 18.8824 29.4455 18.896L29.2723 19.2675C29.2571 19.281 29.2373 19.2885 29.2169 19.2885C29.1964 19.2885 29.1767 19.281 29.1615 19.2675C29.0496 19.1898 28.917 19.1467 28.7805 19.1436C28.4549 19.1436 28.3649 19.4394 28.3649 19.7283" fill="url(#paint5_linear_2021_67)"/>
<path d="M32.2791 21.2761C32.3654 21.1772 32.4101 21.0491 32.4038 20.9184V20.712C32.2418 20.7964 32.0602 20.8367 31.8774 20.829C31.6204 20.8308 31.3725 20.7348 31.1847 20.5607C31.0779 20.449 30.9947 20.3172 30.94 20.173C30.8853 20.0289 30.8601 19.8754 30.866 19.7215C30.862 19.4226 30.9707 19.1331 31.1708 18.9098C31.2601 18.8164 31.3675 18.7421 31.4866 18.6912C31.6056 18.6404 31.7339 18.6141 31.8635 18.614C32.0557 18.6169 32.2422 18.6794 32.3969 18.7928V18.731C32.3968 18.7213 32.3988 18.7117 32.4027 18.7029C32.4066 18.6941 32.4123 18.6862 32.4195 18.6797C32.4267 18.6732 32.4352 18.6683 32.4444 18.6653C32.4537 18.6623 32.4634 18.6612 32.473 18.6621H32.9302C32.9399 18.6612 32.9497 18.6623 32.9589 18.6653C32.9681 18.6683 32.9766 18.6732 32.9838 18.6797C32.9909 18.6862 32.9967 18.6941 33.0006 18.7029C33.0045 18.7117 33.0065 18.7213 33.0064 18.731V20.8427C33.0194 20.9969 32.9969 21.152 32.9405 21.2962C32.884 21.4404 32.7953 21.57 32.6809 21.675C32.4526 21.8403 32.1731 21.9206 31.8912 21.9021C31.5925 21.9085 31.2985 21.8271 31.0461 21.6682C31.0366 21.6552 31.0314 21.6395 31.0314 21.6235C31.0314 21.6074 31.0366 21.5917 31.0461 21.5788L31.2262 21.2211C31.2334 21.2135 31.2419 21.2076 31.2515 21.2035C31.261 21.1994 31.2713 21.1973 31.2817 21.1973C31.292 21.1973 31.3023 21.1994 31.3118 21.2035C31.3214 21.2076 31.3299 21.2135 31.337 21.2211C31.5115 21.3426 31.7197 21.4075 31.9328 21.4068C32.0612 21.4138 32.1875 21.372 32.2861 21.2898L32.2791 21.2761ZM32.4107 20.203V19.3088C32.286 19.2101 32.1335 19.1524 31.9743 19.1437C31.9109 19.1393 31.8474 19.1494 31.7885 19.1733C31.7297 19.1971 31.6771 19.234 31.6349 19.2812C31.542 19.4146 31.4922 19.573 31.4922 19.7353C31.4922 19.8975 31.542 20.0558 31.6349 20.1892C31.6778 20.2337 31.7295 20.2688 31.7867 20.2925C31.8439 20.3162 31.9054 20.3278 31.9674 20.3268C32.1276 20.3243 32.2837 20.2766 32.4177 20.1892" fill="url(#paint6_linear_2021_67)"/>
<path d="M36.2269 20.9252C36.1468 21.1879 35.9987 21.425 35.7974 21.6131C35.6662 21.7236 35.514 21.8067 35.3498 21.8575C35.1855 21.9083 35.0127 21.9258 34.8415 21.9089C34.8339 21.91 34.8262 21.9094 34.819 21.9071C34.8117 21.9047 34.8051 21.9007 34.7997 21.8953C34.7943 21.89 34.7903 21.8834 34.7879 21.8762C34.7855 21.869 34.7849 21.8613 34.7861 21.8538V21.3792C34.7849 21.3717 34.7855 21.3641 34.7879 21.3568C34.7903 21.3496 34.7943 21.3431 34.7997 21.3377C34.8051 21.3323 34.8117 21.3283 34.819 21.326C34.8262 21.3236 34.8339 21.323 34.8415 21.3242H34.987C35.1148 21.3274 35.2399 21.286 35.3402 21.2072C35.4311 21.1359 35.5065 21.0469 35.5619 20.9458L34.5713 18.7584C34.5713 18.7171 34.5713 18.6621 34.6268 18.6621H35.2086C35.271 18.6621 35.3056 18.6621 35.3264 18.7309L35.8805 20.1754L36.3446 18.7309C36.3446 18.6758 36.3931 18.6621 36.4624 18.6621H36.9958C37.065 18.6621 37.065 18.7171 37.0511 18.7584L36.2269 20.9252Z" fill="url(#paint7_linear_2021_67)"/>
<path d="M41.9351 20.1959C41.9351 20.0927 41.8517 20.0514 41.7271 20.0033C41.6026 19.9551 41.4293 19.8932 41.2769 19.8175C41.1681 19.77 41.0765 19.6904 41.0146 19.5895C40.9527 19.4887 40.9233 19.3714 40.9306 19.2535C40.9306 18.8614 41.2354 18.6138 41.7894 18.6138C42.0443 18.6055 42.2972 18.6623 42.5238 18.7789C42.5309 18.7847 42.5367 18.792 42.5409 18.8003C42.545 18.8087 42.5471 18.8178 42.5471 18.827C42.5471 18.8362 42.545 18.8453 42.5409 18.8537C42.5367 18.862 42.5309 18.8694 42.5238 18.8752L42.3574 19.2191C42.3574 19.2191 42.3092 19.2604 42.2673 19.2191C42.1203 19.1337 41.953 19.0886 41.7828 19.0884C41.6578 19.0884 41.5611 19.1297 41.5611 19.2328C41.5611 19.336 41.6578 19.3773 41.7686 19.4186C41.8795 19.4599 42.0597 19.5218 42.205 19.5974C42.3129 19.639 42.4051 19.7131 42.4686 19.8093C42.5317 19.9056 42.5633 20.0191 42.5583 20.134C42.5583 20.5261 42.2191 20.8218 41.6719 20.8218C41.3991 20.8364 41.1279 20.7744 40.889 20.643C40.8819 20.6379 40.876 20.6312 40.872 20.6234C40.868 20.6156 40.8659 20.607 40.8659 20.5983C40.8659 20.5895 40.868 20.5809 40.872 20.5732C40.876 20.5654 40.8819 20.5587 40.889 20.5536L41.0622 20.1959C41.068 20.1899 41.075 20.1851 41.0827 20.1818C41.0905 20.1785 41.0988 20.1768 41.1072 20.1768C41.1156 20.1768 41.124 20.1785 41.1317 20.1818C41.1394 20.1851 41.1464 20.1899 41.1522 20.1959C41.3103 20.3017 41.4951 20.3612 41.6856 20.3679C41.838 20.3679 41.9351 20.3128 41.9351 20.2028" fill="url(#paint8_linear_2021_67)"/>
<path d="M44.9821 19.9554C44.9763 20.0385 44.9933 20.1216 45.0307 20.1962C45.051 20.2345 45.0822 20.266 45.1203 20.2868C45.1585 20.3076 45.2021 20.3167 45.2453 20.3131C45.3591 20.3073 45.4679 20.2664 45.5571 20.1962C45.5986 20.1962 45.6401 20.1962 45.6538 20.1962L45.8203 20.5401C45.8315 20.5537 45.8378 20.5707 45.8378 20.5882C45.8378 20.6058 45.8315 20.6229 45.8203 20.6364C45.6127 20.7657 45.3728 20.8347 45.1274 20.8359C45.0269 20.8433 44.9256 20.8286 44.831 20.7929C44.7363 20.7573 44.6508 20.7015 44.5802 20.6296C44.4548 20.4558 44.3938 20.2444 44.4071 20.0311V19.1368H44.1231C44.1044 19.1351 44.0866 19.1264 44.0737 19.1124C44.0608 19.0984 44.0538 19.0801 44.0538 19.0612V18.7241C44.0538 18.7059 44.0612 18.6884 44.0741 18.6755C44.0874 18.6626 44.1048 18.6553 44.1231 18.6553H44.3311V18.2426C44.3311 18.2236 44.3382 18.2054 44.351 18.1914C44.3635 18.1774 44.3813 18.1686 44.4004 18.1669H44.8854C44.8949 18.1669 44.9045 18.1689 44.9136 18.1727C44.9223 18.1766 44.9302 18.1823 44.9368 18.1894C44.9435 18.1966 44.9481 18.205 44.9514 18.2142C44.9543 18.2233 44.9555 18.233 44.9543 18.2426V18.6622H45.5501C45.5596 18.6611 45.5692 18.6621 45.5779 18.6652C45.587 18.6682 45.5949 18.6733 45.6015 18.6799C45.6082 18.6865 45.6132 18.6946 45.6165 18.7034C45.6194 18.7122 45.6206 18.7217 45.6194 18.731V19.068C45.6202 19.0776 45.6194 19.0873 45.6161 19.0965C45.6132 19.1057 45.6082 19.1141 45.6019 19.1212C45.5953 19.1283 45.5874 19.134 45.5783 19.1379C45.5696 19.1418 45.56 19.1438 45.5501 19.1437H44.9543L44.9821 19.9554Z" fill="url(#paint9_linear_2021_67)"/>
<path d="M48.3915 18.6139C48.6116 18.622 48.8241 18.6942 49.0031 18.8214C49.182 18.9487 49.3194 19.1254 49.3979 19.3296C49.4768 19.5338 49.493 19.7565 49.4452 19.9698C49.3971 20.1832 49.287 20.3779 49.1289 20.5297C48.9703 20.6814 48.7701 20.7835 48.5538 20.8233C48.3375 20.863 48.1138 20.8387 47.9112 20.7533C47.7085 20.6678 47.5358 20.5251 47.4142 20.3428C47.2925 20.1606 47.2278 19.9468 47.2278 19.7282C47.2236 19.5772 47.251 19.427 47.3087 19.2872C47.366 19.1474 47.4524 19.021 47.562 18.9161C47.6716 18.8113 47.802 18.7302 47.9448 18.6782C48.0876 18.6262 48.2396 18.6042 48.3915 18.6139ZM48.3915 20.3267C48.5393 20.3109 48.6759 20.2414 48.7751 20.1316C48.8744 20.0217 48.9296 19.8793 48.9296 19.7317C48.9296 19.5841 48.8744 19.4416 48.7751 19.3318C48.6759 19.222 48.5393 19.1525 48.3915 19.1367C48.2437 19.1525 48.1067 19.222 48.0075 19.3318C47.9083 19.4416 47.8534 19.5841 47.8534 19.7317C47.8534 19.8793 47.9083 20.0217 48.0075 20.1316C48.1067 20.2414 48.2437 20.3109 48.3915 20.3267Z" fill="url(#paint10_linear_2021_67)"/>
<path d="M51.8881 19.7421V20.7258C51.8881 20.744 51.8811 20.7615 51.8678 20.7744C51.8549 20.7873 51.8375 20.7946 51.8188 20.7946H51.3409C51.3218 20.7946 51.3036 20.7876 51.2894 20.7749C51.2753 20.7622 51.2666 20.7447 51.2649 20.7258V18.731C51.2649 18.7109 51.2728 18.6917 51.2869 18.6775C51.3015 18.6633 51.3206 18.6553 51.3409 18.6553H51.798C51.8184 18.6553 51.8379 18.6633 51.852 18.6775C51.8661 18.6917 51.8744 18.7109 51.8744 18.731V18.8616C51.9392 18.7861 52.0201 18.7255 52.1111 18.684C52.202 18.6424 52.3008 18.6209 52.4009 18.6209C52.5918 18.6169 52.7787 18.6803 52.9273 18.7997C52.9385 18.8133 52.9447 18.8303 52.9447 18.8479C52.9447 18.8655 52.9385 18.8825 52.9273 18.896L52.7471 19.2675C52.7471 19.3019 52.6848 19.3088 52.6433 19.2675C52.5312 19.1898 52.3988 19.1468 52.2622 19.1437C51.9367 19.1437 51.8466 19.4395 51.8466 19.7284" fill="url(#paint11_linear_2021_67)"/>
<path d="M54.6806 19.2607C54.632 19.2607 54.6042 19.2607 54.5764 19.2607L54.4448 18.9648C54.4448 18.9236 54.4448 18.896 54.4448 18.8686C54.71 18.7152 55.011 18.6345 55.3179 18.6347C55.4441 18.626 55.5711 18.6436 55.6903 18.6862C55.8094 18.7288 55.9186 18.7956 56.0104 18.8823C56.1474 19.0376 56.2171 19.2403 56.2043 19.4464V20.7464C56.2026 20.7653 56.1939 20.7828 56.1798 20.7956C56.1656 20.8083 56.1474 20.8153 56.1283 20.8152H55.7127C55.6936 20.8153 55.6749 20.8083 55.6608 20.7956C55.6467 20.7828 55.638 20.7653 55.6363 20.7464V20.7052C55.4661 20.8166 55.2651 20.8719 55.0613 20.8634C54.8778 20.8668 54.6988 20.8059 54.5556 20.6914C54.4867 20.6307 54.4319 20.5553 54.3958 20.4707C54.3601 20.3862 54.3434 20.2947 54.348 20.203C54.3476 20.0844 54.385 19.9688 54.4547 19.8725C54.524 19.7761 54.6224 19.7041 54.7358 19.6665C55.011 19.5643 55.3013 19.5062 55.5948 19.4945V19.4464C55.6018 19.3605 55.5769 19.2749 55.5254 19.2056C55.4914 19.1736 55.4511 19.1491 55.4071 19.1337C55.3627 19.1183 55.3158 19.1123 55.2693 19.1162C55.06 19.1207 54.8549 19.1775 54.6735 19.2813L54.6806 19.2607ZM55.5948 20.3131V19.8935C55.3108 19.8935 54.9438 19.9348 54.9438 20.1686C54.9438 20.4025 55.0891 20.3819 55.2622 20.3819C55.3793 20.3841 55.4947 20.353 55.5948 20.2925" fill="url(#paint12_linear_2021_67)"/>
<path d="M59.3152 21.276C59.4015 21.1771 59.4459 21.049 59.4397 20.9183V20.7119C59.2778 20.7962 59.0964 20.8366 58.9133 20.8289C58.6563 20.8307 58.4084 20.7347 58.2208 20.5606C58.1141 20.4488 58.0306 20.317 57.9762 20.1729C57.9214 20.0288 57.8961 19.8753 57.9019 19.7214C57.8961 19.4234 58.0024 19.134 58.2 18.9097C58.293 18.812 58.4063 18.7351 58.5317 18.6841C58.6571 18.6331 58.792 18.6092 58.9274 18.6139C59.1196 18.6168 59.306 18.6793 59.4605 18.7927V18.7308C59.4605 18.7218 59.4625 18.7128 59.4659 18.7045C59.4692 18.6962 59.4746 18.6886 59.4808 18.6822C59.4875 18.6758 59.4949 18.6707 59.5032 18.6673C59.512 18.6638 59.5207 18.662 59.5298 18.662H59.994C60.0035 18.6611 60.0135 18.6621 60.0226 18.6652C60.0318 18.6682 60.0405 18.6731 60.0475 18.6796C60.0546 18.6861 60.0604 18.694 60.0641 18.7028C60.0683 18.7116 60.0704 18.7212 60.0704 18.7308V20.8426C60.0832 20.9968 60.0604 21.1519 60.0044 21.2961C59.9479 21.4403 59.859 21.5699 59.7445 21.675C59.5165 21.8402 59.2367 21.9205 58.9548 21.9019C58.6563 21.9083 58.3623 21.827 58.1099 21.6681C58.1004 21.6551 58.095 21.6394 58.095 21.6233C58.095 21.6073 58.1004 21.5916 58.1099 21.5786L58.2901 21.2209C58.2972 21.2135 58.3059 21.2075 58.3154 21.2034C58.3246 21.1993 58.3349 21.1972 58.3453 21.1972C58.3557 21.1972 58.3661 21.1993 58.3756 21.2034C58.3852 21.2075 58.3939 21.2135 58.4009 21.2209C58.5753 21.3424 58.7833 21.4073 58.9967 21.4067C59.125 21.4137 59.2512 21.3719 59.3496 21.2897L59.3152 21.276ZM59.4746 20.2029V19.3086C59.3496 19.21 59.1973 19.1523 59.0382 19.1435C58.9747 19.1392 58.9112 19.1493 58.8522 19.1732C58.7933 19.197 58.741 19.234 58.6986 19.2811C58.6056 19.4146 58.5558 19.5729 58.5558 19.7351C58.5558 19.8973 58.6056 20.0557 58.6986 20.1891C58.7414 20.2335 58.7933 20.2687 58.8506 20.2923C58.9075 20.316 58.9693 20.3277 59.0312 20.3267C59.1914 20.3253 59.348 20.2775 59.4812 20.1891" fill="url(#paint13_linear_2021_67)"/>
<path d="M63.5047 20.2373C63.5603 20.2373 63.5948 20.2373 63.6156 20.2373L63.782 20.54C63.7932 20.5536 63.7995 20.5706 63.7995 20.5882C63.7995 20.6057 63.7932 20.6228 63.782 20.6363C63.5379 20.784 63.2573 20.8603 62.9716 20.8565C62.8143 20.8634 62.6573 20.839 62.5099 20.7846C62.3621 20.7302 62.2272 20.6471 62.1126 20.54C61.9079 20.3212 61.7946 20.0337 61.7946 19.7352C61.7946 19.4367 61.9079 19.1492 62.1126 18.9304C62.2164 18.8291 62.3401 18.75 62.4759 18.698C62.6117 18.6459 62.757 18.622 62.9023 18.6277C63.0625 18.6187 63.2224 18.6484 63.3681 18.7143C63.5142 18.7802 63.6421 18.8803 63.7405 19.0061C63.8933 19.2633 63.961 19.5616 63.9344 19.859C63.9357 19.8683 63.9344 19.8778 63.9315 19.8866C63.9282 19.8955 63.9232 19.9035 63.9166 19.9101C63.9099 19.9167 63.9016 19.9218 63.8929 19.9248C63.8838 19.9279 63.8746 19.9289 63.8651 19.9278H62.4796C62.4991 20.034 62.5498 20.132 62.6254 20.2099C62.6818 20.2625 62.7483 20.3036 62.8205 20.3308C62.8931 20.3579 62.9704 20.3706 63.0476 20.3681C63.2307 20.3652 63.4096 20.3154 63.5674 20.2236L63.5047 20.2373ZM63.3594 19.5357C63.3581 19.4327 63.3212 19.3333 63.2556 19.2537C63.2141 19.2121 63.1643 19.1797 63.1095 19.1583C63.0547 19.137 62.9957 19.1273 62.9367 19.1299C62.8749 19.1265 62.8126 19.1358 62.7545 19.157C62.6959 19.1783 62.6428 19.2112 62.5975 19.2537C62.5295 19.333 62.4879 19.4318 62.4796 19.5357H63.3594Z" fill="url(#paint14_linear_2021_67)"/>
<path d="M26.3772 0.0275814C24.9329 0.0262207 23.5207 0.450284 22.3191 1.24612C21.1176 2.04196 20.1807 3.17381 19.6271 4.4985C19.0735 5.82317 18.9279 7.2812 19.2088 8.68806C19.4897 10.0949 20.1845 11.3874 21.2053 12.4021C22.226 13.4167 23.5269 14.1079 24.9434 14.3882C26.3598 14.6686 27.8281 14.5254 29.1626 13.9768C30.497 13.4282 31.6377 12.499 32.4402 11.3065C33.2427 10.1141 33.6711 8.71208 33.6711 7.27781C33.672 6.32601 33.484 5.38339 33.1179 4.5038C32.7518 3.62419 32.2146 2.82488 31.5372 2.15154C30.8598 1.47821 30.0554 0.944049 29.17 0.579607C28.2846 0.215164 27.3356 0.027581 26.3772 0.0275814ZM26.3772 11.7903C25.4765 11.7916 24.5957 11.5276 23.8462 11.0315C23.0967 10.5355 22.5123 9.82969 22.167 9.00359C21.8217 8.1775 21.731 7.26825 21.9064 6.39095C22.0818 5.51361 22.5154 4.70773 23.1523 4.07527C23.7891 3.44282 24.6007 3.01225 25.4841 2.83808C26.3675 2.66392 27.2832 2.75401 28.115 3.09692C28.9468 3.43983 29.6575 4.02015 30.1571 4.76441C30.6566 5.50869 30.9225 6.38339 30.9212 7.27781C30.9212 8.47461 30.4424 9.62237 29.5903 10.4686C28.7381 11.3149 27.5823 11.7903 26.3772 11.7903Z" fill="url(#paint15_linear_2021_67)"/>
<defs>
<linearGradient id="paint0_linear_2021_67" x1="0" y1="10.9576" x2="80" y2="10.9576" gradientUnits="userSpaceOnUse">
<stop stop-color="#FF6217"/>
<stop offset="1" stop-color="#F59465"/>
</linearGradient>
<linearGradient id="paint1_linear_2021_67" x1="0" y1="10.9576" x2="80" y2="10.9576" gradientUnits="userSpaceOnUse">
<stop stop-color="#FF6217"/>
<stop offset="1" stop-color="#F59465"/>
</linearGradient>
<linearGradient id="paint2_linear_2021_67" x1="0" y1="10.9576" x2="80" y2="10.9576" gradientUnits="userSpaceOnUse">
<stop stop-color="#FF6217"/>
<stop offset="1" stop-color="#F59465"/>
</linearGradient>
<linearGradient id="paint3_linear_2021_67" x1="0" y1="10.9576" x2="80" y2="10.9576" gradientUnits="userSpaceOnUse">
<stop stop-color="#FF6217"/>
<stop offset="1" stop-color="#F59465"/>
</linearGradient>
<linearGradient id="paint4_linear_2021_67" x1="0" y1="10.9576" x2="80" y2="10.9576" gradientUnits="userSpaceOnUse">
<stop stop-color="#FF6217"/>
<stop offset="1" stop-color="#F59465"/>
</linearGradient>
<linearGradient id="paint5_linear_2021_67" x1="0" y1="10.9576" x2="80" y2="10.9576" gradientUnits="userSpaceOnUse">
<stop stop-color="#FF6217"/>
<stop offset="1" stop-color="#F59465"/>
</linearGradient>
<linearGradient id="paint6_linear_2021_67" x1="0" y1="10.9576" x2="80" y2="10.9576" gradientUnits="userSpaceOnUse">
<stop stop-color="#FF6217"/>
<stop offset="1" stop-color="#F59465"/>
</linearGradient>
<linearGradient id="paint7_linear_2021_67" x1="0" y1="10.9576" x2="80" y2="10.9576" gradientUnits="userSpaceOnUse">
<stop stop-color="#FF6217"/>
<stop offset="1" stop-color="#F59465"/>
</linearGradient>
<linearGradient id="paint8_linear_2021_67" x1="0" y1="10.9576" x2="80" y2="10.9576" gradientUnits="userSpaceOnUse">
<stop stop-color="#FF6217"/>
<stop offset="1" stop-color="#F59465"/>
</linearGradient>
<linearGradient id="paint9_linear_2021_67" x1="0" y1="10.9576" x2="80" y2="10.9576" gradientUnits="userSpaceOnUse">
<stop stop-color="#FF6217"/>
<stop offset="1" stop-color="#F59465"/>
</linearGradient>
<linearGradient id="paint10_linear_2021_67" x1="0" y1="10.9576" x2="80" y2="10.9576" gradientUnits="userSpaceOnUse">
<stop stop-color="#FF6217"/>
<stop offset="1" stop-color="#F59465"/>
</linearGradient>
<linearGradient id="paint11_linear_2021_67" x1="0" y1="10.9576" x2="80" y2="10.9576" gradientUnits="userSpaceOnUse">
<stop stop-color="#FF6217"/>
<stop offset="1" stop-color="#F59465"/>
</linearGradient>
<linearGradient id="paint12_linear_2021_67" x1="0" y1="10.9576" x2="80" y2="10.9576" gradientUnits="userSpaceOnUse">
<stop stop-color="#FF6217"/>
<stop offset="1" stop-color="#F59465"/>
</linearGradient>
<linearGradient id="paint13_linear_2021_67" x1="0" y1="10.9576" x2="80" y2="10.9576" gradientUnits="userSpaceOnUse">
<stop stop-color="#FF6217"/>
<stop offset="1" stop-color="#F59465"/>
</linearGradient>
<linearGradient id="paint14_linear_2021_67" x1="0" y1="10.9576" x2="80" y2="10.9576" gradientUnits="userSpaceOnUse">
<stop stop-color="#FF6217"/>
<stop offset="1" stop-color="#F59465"/>
</linearGradient>
<linearGradient id="paint15_linear_2021_67" x1="0" y1="10.9576" x2="80" y2="10.9576" gradientUnits="userSpaceOnUse">
<stop stop-color="#FF6217"/>
<stop offset="1" stop-color="#F59465"/>
</linearGradient>
</defs>
</svg>
