<svg width="74" height="20" viewBox="0 0 74 20" fill="none" xmlns="http://www.w3.org/2000/svg">
<path fill-rule="evenodd" clip-rule="evenodd" d="M6.93303 3.55261L5.23273 0.696627C5.13859 0.545823 5.00743 0.42122 4.85157 0.334491C4.69568 0.247762 4.5202 0.201744 4.34153 0.200751H0.176147L5.8648 13.0935H8.05177L13.7405 0.200751H9.65724C9.47858 0.201744 9.3031 0.247762 9.1472 0.334491C8.99134 0.42122 8.86019 0.545823 8.76604 0.696627L6.93303 3.55261ZM4.66385 4.02965L6.93303 7.79577L9.2401 4.02965L6.93303 9.22066L4.66385 4.02965Z" fill="white"/>
<path fill-rule="evenodd" clip-rule="evenodd" d="M24.2333 2.57352C23.2873 2.57498 22.371 2.90212 21.6406 3.49921C20.9102 4.0963 20.4108 4.92641 20.2276 5.84809C20.0444 6.76982 20.1886 7.72607 20.6357 8.554C21.0828 9.38197 21.8052 10.0303 22.6797 10.3887C23.5542 10.7471 24.5268 10.7933 25.4317 10.5194C26.3367 10.2456 27.1181 9.6686 27.6427 8.88681C28.1674 8.10503 28.4029 7.16681 28.309 6.23194C28.2152 5.2971 27.7979 4.42344 27.1282 3.75986C26.3596 2.99921 25.3184 2.57254 24.2333 2.57352ZM24.2333 13.2442C22.6899 13.2457 21.1938 12.7154 20.0001 11.7438C18.8063 10.7723 17.989 9.41959 17.6873 7.91642C17.3856 6.4133 17.6183 4.85278 18.3458 3.50097C19.0732 2.14918 20.2503 1.08983 21.6764 0.503571C23.1024 -0.082687 24.6891 -0.159552 26.1659 0.286084C27.6426 0.731719 28.918 1.67226 29.7745 2.94732C30.6309 4.22237 31.0155 5.75301 30.8626 7.27816C30.7097 8.80335 30.0288 10.2286 28.936 11.3109C28.3201 11.9269 27.5874 12.4154 26.7802 12.7484C25.973 13.0813 25.1074 13.2519 24.2333 13.2505V13.2442ZM64.3573 13.081V10.5389H69.4138C69.7643 10.5382 70.1003 10.4007 70.3496 10.156C70.4727 10.0345 70.5704 9.88979 70.6367 9.73022C70.703 9.57069 70.7364 9.39958 70.7349 9.22702C70.7349 8.8785 70.5962 8.54417 70.3484 8.29718C70.101 8.05015 69.765 7.91052 69.4138 7.90888H67.8715C67.3484 7.92984 66.8263 7.84562 66.3368 7.6612C65.847 7.47683 65.3999 7.19607 65.0222 6.83586C64.6445 6.47561 64.3441 6.04329 64.1388 5.56486C63.9334 5.08647 63.8277 4.57176 63.8277 4.05171C63.8277 3.53169 63.9334 3.01701 64.1388 2.53858C64.3441 2.06016 64.6445 1.62785 65.0222 1.26761C65.3999 0.907378 65.847 0.626639 66.3368 0.442249C66.8263 0.257858 67.3484 0.173617 67.8715 0.194583H72.587V2.73672H67.8715C67.5363 2.75975 67.2222 2.9083 66.993 3.15237C66.7634 3.39645 66.6357 3.71787 66.6357 4.05171C66.6357 4.38559 66.7634 4.70701 66.993 4.95107C67.2222 5.19516 67.5363 5.34371 67.8715 5.36673H69.4456C70.4485 5.40694 71.3971 5.83087 72.0923 6.54985C72.7878 7.26879 73.1761 8.22702 73.1761 9.22389C73.1761 10.2207 72.7878 11.179 72.0923 11.8979C71.3971 12.6169 70.4485 13.0409 69.4456 13.081H64.3573ZM52.8791 13.081V2.73672H49.1561V0.194583H59.1618V2.73672H55.445V13.081H52.8791ZM35.8888 13.081V0.194583H38.4169V10.5389H45.2309V13.081H35.8888ZM24.2333 2.57352C25.1757 2.57762 26.0876 2.90582 26.8138 3.50228C27.54 4.09874 28.0357 4.92664 28.2166 5.84508C28.3974 6.76357 28.2523 7.71589 27.8058 8.54009C27.3594 9.36425 26.6392 10.0094 25.7677 10.3657C24.8963 10.7221 23.9275 10.7676 23.0261 10.4945C22.1247 10.2215 21.3463 9.6468 20.8235 8.86818C20.3007 8.08952 20.0656 7.15507 20.1584 6.22374C20.2511 5.29242 20.6659 4.42176 21.3321 3.75986C21.7126 3.38135 22.165 3.08159 22.663 2.87795C23.161 2.67431 23.6948 2.57083 24.2333 2.57352ZM24.2333 13.2442C22.6899 13.2457 21.1938 12.7154 20.0001 11.7438C18.8063 10.7723 17.989 9.41959 17.6873 7.91642C17.3856 6.4133 17.6183 4.85278 18.3458 3.50097C19.0732 2.14918 20.2503 1.08983 21.6764 0.503571C23.1024 -0.082687 24.6891 -0.159552 26.1659 0.286084C27.6426 0.731719 28.918 1.67226 29.7745 2.94732C30.6309 4.22237 31.0155 5.75301 30.8626 7.27816C30.7097 8.80335 30.0288 10.2286 28.936 11.3109C28.3201 11.9269 27.5874 12.4154 26.7802 12.7484C25.973 13.0813 25.1074 13.2519 24.2333 13.2505" fill="white"/>
<path d="M16.6099 18.4666C16.6541 18.4666 16.6921 18.4666 16.7047 18.4666L16.8564 18.7428C16.8631 18.7587 16.8637 18.7765 16.8578 18.7928C16.852 18.8091 16.8402 18.8226 16.8248 18.8306C16.6025 18.966 16.346 19.0357 16.0853 19.0315C15.8092 19.028 15.5448 18.9203 15.3457 18.7302C15.2495 18.6303 15.1747 18.512 15.1259 18.3825C15.077 18.253 15.055 18.1151 15.0613 17.977C15.0558 17.8442 15.0784 17.7118 15.1274 17.5881C15.1765 17.4645 15.251 17.3524 15.3462 17.2591C15.4414 17.1657 15.5552 17.0931 15.6803 17.046C15.8054 16.9988 15.939 16.9781 16.0726 16.9853C16.2178 16.9769 16.3628 17.0041 16.4951 17.0643C16.6273 17.1244 16.7426 17.2158 16.8311 17.3304C16.976 17.5631 17.0403 17.8365 17.0144 18.1088C17.0154 18.1173 17.0145 18.1259 17.0117 18.134C17.0088 18.142 17.0042 18.1494 16.9982 18.1554C16.9921 18.1615 16.9847 18.166 16.9765 18.1689C16.9684 18.1716 16.9597 18.1726 16.9512 18.1716H15.687C15.7 18.2687 15.7444 18.359 15.8135 18.4289C15.9179 18.5254 16.0564 18.5773 16.199 18.5733C16.3421 18.5676 16.4823 18.5312 16.6099 18.4666ZM16.4203 17.8389C16.4158 17.7455 16.3828 17.6557 16.3254 17.5816C16.286 17.5441 16.2394 17.5147 16.1884 17.4953C16.1373 17.476 16.083 17.4668 16.0284 17.4686C15.9143 17.4652 15.8034 17.5056 15.7186 17.5816C15.6591 17.6555 15.6218 17.7448 15.6112 17.8389H16.4203Z" fill="white"/>
<path d="M19.0944 17.2113C19.1704 17.1333 19.2619 17.0718 19.3631 17.0308C19.4643 16.9897 19.573 16.97 19.6822 16.9728C19.8918 16.9629 20.0974 17.0324 20.2574 17.1673C20.3394 17.2489 20.4024 17.3475 20.4417 17.456C20.481 17.5644 20.4958 17.6802 20.485 17.795V18.9123C20.485 18.929 20.4783 18.9449 20.4664 18.9567C20.4546 18.9685 20.4385 18.9751 20.4217 18.9751H19.9793C19.963 18.9737 19.9478 18.9666 19.9362 18.9551C19.9246 18.9436 19.9175 18.9285 19.9161 18.9123V17.9394C19.9292 17.8078 19.8932 17.676 19.8149 17.5691C19.7823 17.5338 19.742 17.5064 19.6971 17.489C19.6522 17.4716 19.6038 17.4646 19.5558 17.4686C19.2208 17.4686 19.0944 17.7825 19.0944 18.0587V18.9123C19.0944 18.929 19.0877 18.9449 19.0759 18.9567C19.064 18.9685 19.048 18.9751 19.0312 18.9751H18.5887C18.572 18.9751 18.5559 18.9685 18.544 18.9567C18.5322 18.9449 18.5255 18.929 18.5255 18.9123V17.092C18.5245 17.0835 18.5254 17.0749 18.5282 17.0668C18.5311 17.0588 18.5357 17.0514 18.5418 17.0454C18.5479 17.0394 18.5553 17.0348 18.5634 17.032C18.5715 17.0292 18.5802 17.0282 18.5887 17.0292H19.0122C19.0208 17.0282 19.0294 17.0292 19.0375 17.032C19.0457 17.0348 19.0531 17.0394 19.0592 17.0454C19.0652 17.0514 19.0698 17.0588 19.0727 17.0668C19.0755 17.0749 19.0764 17.0835 19.0754 17.092V17.2113H19.0944Z" fill="white"/>
<path d="M23.5944 18.4666C23.6386 18.4666 23.6765 18.4666 23.6955 18.4666L23.8409 18.7428C23.8501 18.7556 23.8551 18.7709 23.8551 18.7867C23.8551 18.8025 23.8501 18.8178 23.8409 18.8306C23.6159 18.9653 23.3576 19.0349 23.095 19.0315C22.9487 19.0368 22.8029 19.0128 22.6661 18.9611C22.5293 18.9093 22.4043 18.8308 22.2986 18.7302C22.2024 18.6303 22.1276 18.512 22.0787 18.3825C22.0298 18.253 22.0079 18.1151 22.0142 17.977C22.0087 17.8442 22.0312 17.7118 22.0803 17.5881C22.1293 17.4645 22.2039 17.3524 22.2991 17.2591C22.3943 17.1657 22.5081 17.0931 22.6332 17.046C22.7583 16.9988 22.8919 16.9781 23.0255 16.9853C23.1707 16.9769 23.3157 17.0041 23.4479 17.0643C23.5801 17.1244 23.6955 17.2158 23.784 17.3304C23.9289 17.5631 23.9932 17.8365 23.9673 18.1088C23.9683 18.1173 23.9674 18.1259 23.9646 18.134C23.9617 18.142 23.9571 18.1494 23.951 18.1554C23.9449 18.1615 23.9375 18.166 23.9294 18.1689C23.9213 18.1716 23.9126 18.1726 23.9041 18.1716H22.6399C22.6555 18.2692 22.702 18.3593 22.7727 18.4289C22.8228 18.4771 22.8823 18.5147 22.9475 18.5395C23.0126 18.5643 23.0822 18.5758 23.1519 18.5733C23.3207 18.5707 23.4861 18.5253 23.6323 18.4415L23.5944 18.4666ZM23.4426 17.8138C23.4382 17.7204 23.4051 17.6306 23.3479 17.5564C23.3098 17.5188 23.2643 17.4894 23.2143 17.4699C23.1643 17.4505 23.1108 17.4415 23.0571 17.4434C22.941 17.4391 22.8277 17.4796 22.7411 17.5564C22.6815 17.6304 22.6443 17.7197 22.6336 17.8138H23.4426Z" fill="white"/>
<path d="M26.0907 18.0146V18.9122C26.0907 18.9289 26.084 18.9449 26.0722 18.9566C26.0604 18.9684 26.0443 18.975 26.0275 18.975H25.5914C25.5746 18.975 25.5585 18.9684 25.5467 18.9566C25.5348 18.9449 25.5282 18.9289 25.5282 18.9122V17.092C25.5273 17.0832 25.5283 17.0744 25.531 17.066C25.5338 17.0576 25.5383 17.05 25.5443 17.0434C25.5502 17.0369 25.5575 17.0317 25.5656 17.0282C25.5737 17.0247 25.5825 17.0229 25.5914 17.0229H26.0149C26.0322 17.0245 26.0483 17.0324 26.06 17.0452C26.0717 17.058 26.0781 17.0747 26.0781 17.092V17.2112C26.1374 17.1423 26.2111 17.087 26.294 17.0491C26.3769 17.0111 26.4672 16.9915 26.5584 16.9915C26.7348 16.9886 26.9067 17.0462 27.0451 17.1547C27.0554 17.1671 27.0611 17.1826 27.0611 17.1987C27.0611 17.2147 27.0554 17.2302 27.0451 17.2426L26.8871 17.5816C26.8732 17.5939 26.8552 17.6007 26.8365 17.6007C26.8179 17.6007 26.7999 17.5939 26.786 17.5816C26.6839 17.5107 26.5629 17.4714 26.4384 17.4686C26.1413 17.4686 26.0591 17.7385 26.0591 18.0021" fill="white"/>
<path d="M29.6308 19.4144C29.7096 19.3242 29.7503 19.2073 29.7446 19.088V18.8997C29.5967 18.9767 29.431 19.0135 29.2642 19.0064C29.0298 19.0081 28.8036 18.9205 28.6322 18.7616C28.5348 18.6597 28.4588 18.5394 28.4089 18.4079C28.359 18.2764 28.336 18.1363 28.3414 17.9958C28.3377 17.7231 28.4369 17.4589 28.6195 17.2552C28.701 17.17 28.799 17.1021 28.9076 17.0557C29.0163 17.0093 29.1333 16.9854 29.2516 16.9853C29.427 16.9879 29.5972 17.045 29.7383 17.1485V17.092C29.7382 17.0832 29.7401 17.0745 29.7436 17.0664C29.7472 17.0583 29.7524 17.0511 29.759 17.0452C29.7655 17.0393 29.7733 17.0348 29.7817 17.0321C29.7901 17.0293 29.799 17.0283 29.8078 17.0292H30.225C30.2338 17.0283 30.2427 17.0293 30.2511 17.0321C30.2595 17.0348 30.2673 17.0393 30.2738 17.0452C30.2804 17.0511 30.2856 17.0583 30.2892 17.0664C30.2927 17.0745 30.2945 17.0832 30.2945 17.092V19.019C30.3064 19.1597 30.2858 19.3012 30.2343 19.4328C30.1828 19.5644 30.1018 19.6826 29.9975 19.7785C29.7891 19.9293 29.5341 20.0026 29.2769 19.9856C29.0043 19.9915 28.736 19.9172 28.5057 19.7722C28.497 19.7604 28.4923 19.7461 28.4923 19.7314C28.4923 19.7167 28.497 19.7024 28.5057 19.6906L28.6701 19.3642C28.6766 19.3574 28.6844 19.3519 28.6931 19.3482C28.7018 19.3445 28.7112 19.3426 28.7207 19.3426C28.7301 19.3426 28.7395 19.3445 28.7482 19.3482C28.7569 19.3519 28.7647 19.3574 28.7712 19.3642C28.9304 19.4751 29.1203 19.5343 29.3148 19.5337C29.432 19.5401 29.5473 19.502 29.6372 19.427L29.6308 19.4144ZM29.7509 18.4352V17.6192C29.6371 17.5292 29.498 17.4766 29.3527 17.4686C29.2949 17.4646 29.2369 17.4739 29.1832 17.4956C29.1295 17.5174 29.0815 17.5511 29.043 17.5941C28.9582 17.7159 28.9128 17.8604 28.9128 18.0084C28.9128 18.1564 28.9582 18.301 29.043 18.4227C29.0822 18.4632 29.1293 18.4953 29.1815 18.5169C29.2337 18.5385 29.2898 18.5492 29.3464 18.5482C29.4926 18.5459 29.6351 18.5024 29.7573 18.4227" fill="white"/>
<path d="M33.2332 19.0942C33.1601 19.3339 33.0249 19.5503 32.8413 19.722C32.7216 19.8228 32.5826 19.8986 32.4328 19.945C32.2829 19.9913 32.1252 20.0073 31.969 19.9918C31.9621 19.9929 31.9551 19.9923 31.9484 19.9902C31.9418 19.9881 31.9358 19.9844 31.9309 19.9795C31.9259 19.9746 31.9223 19.9686 31.9201 19.962C31.9179 19.9554 31.9174 19.9485 31.9184 19.9416V19.5085C31.9174 19.5017 31.9179 19.4947 31.9201 19.4881C31.9223 19.4815 31.9259 19.4755 31.9309 19.4707C31.9358 19.4657 31.9418 19.4621 31.9484 19.4599C31.9551 19.4578 31.9621 19.4572 31.969 19.4583H32.1018C32.2184 19.4612 32.3325 19.4235 32.4241 19.3516C32.507 19.2865 32.5759 19.2053 32.6264 19.1131L31.7225 17.117C31.7225 17.0793 31.7225 17.0292 31.7731 17.0292H32.304C32.3609 17.0292 32.3925 17.0292 32.4115 17.0919L32.9171 18.4101L33.3406 17.0919C33.3406 17.0417 33.3848 17.0292 33.4481 17.0292H33.9348C33.998 17.0292 33.998 17.0793 33.9853 17.117L33.2332 19.0942Z" fill="white"/>
<path d="M38.442 18.4287C38.442 18.3346 38.3658 18.2969 38.2522 18.253C38.1385 18.2091 37.9804 18.1526 37.8413 18.0835C37.742 18.0401 37.6585 17.9675 37.6019 17.8755C37.5455 17.7834 37.5187 17.6764 37.5253 17.5688C37.5253 17.211 37.8034 16.9851 38.309 16.9851C38.5416 16.9775 38.7723 17.0293 38.9792 17.1357C38.9856 17.141 38.9909 17.1477 38.9947 17.1553C38.9985 17.1629 39.0004 17.1712 39.0004 17.1796C39.0004 17.1881 38.9985 17.1964 38.9947 17.204C38.9909 17.2116 38.9856 17.2183 38.9792 17.2236L38.8272 17.5374C38.8272 17.5374 38.7833 17.5751 38.745 17.5374C38.6109 17.4595 38.4582 17.4183 38.3029 17.4182C38.1889 17.4182 38.1006 17.4558 38.1006 17.55C38.1006 17.6441 38.1889 17.6818 38.29 17.7195C38.3912 17.7571 38.5556 17.8136 38.6882 17.8827C38.7867 17.9206 38.8708 17.9882 38.9288 18.076C38.9864 18.1638 39.0152 18.2674 39.0106 18.3723C39.0106 18.73 38.7011 18.9999 38.2018 18.9999C37.9528 19.0132 37.7053 18.9566 37.4874 18.8367C37.4809 18.8321 37.4755 18.8259 37.4719 18.8189C37.4682 18.8118 37.4663 18.8039 37.4663 18.796C37.4663 18.788 37.4682 18.7801 37.4719 18.773C37.4755 18.7659 37.4809 18.7598 37.4874 18.7551L37.6454 18.4287C37.6507 18.4232 37.6571 18.4189 37.6641 18.4159C37.6712 18.4129 37.6788 18.4113 37.6865 18.4113C37.6941 18.4113 37.7018 18.4129 37.7088 18.4159C37.7159 18.4189 37.7223 18.4232 37.7276 18.4287C37.8718 18.5253 38.0405 18.5796 38.2143 18.5857C38.3533 18.5857 38.442 18.5354 38.442 18.435" fill="white"/>
<path d="M41.2223 18.2093C41.217 18.2851 41.2325 18.361 41.2666 18.429C41.2852 18.4639 41.3136 18.4927 41.3485 18.5117C41.3833 18.5306 41.4231 18.539 41.4625 18.5357C41.5663 18.5304 41.6656 18.4931 41.747 18.429C41.7849 18.429 41.8228 18.429 41.8353 18.429L41.9872 18.7428C41.9974 18.7552 42.0031 18.7708 42.0031 18.7868C42.0031 18.8028 41.9974 18.8184 41.9872 18.8307C41.7978 18.9487 41.5788 19.0117 41.3549 19.0128C41.2632 19.0195 41.1708 19.0061 41.0844 18.9736C40.998 18.941 40.92 18.8901 40.8556 18.8245C40.7412 18.6659 40.6855 18.473 40.6976 18.2784V17.4623H40.4385C40.4214 17.4608 40.4051 17.4528 40.3934 17.4401C40.3816 17.4273 40.3752 17.4106 40.3752 17.3933V17.0857C40.3752 17.0691 40.382 17.0531 40.3938 17.0414C40.4059 17.0296 40.4218 17.023 40.4385 17.023H40.6283V16.6464C40.6283 16.6291 40.6347 16.6124 40.6465 16.5997C40.6578 16.5869 40.6741 16.5789 40.6915 16.5773H41.134C41.1428 16.5773 41.1515 16.5791 41.1598 16.5826C41.1678 16.5862 41.175 16.5913 41.181 16.5979C41.1871 16.6044 41.1912 16.6121 41.1943 16.6204C41.1969 16.6288 41.1981 16.6376 41.1969 16.6464V17.0293H41.7406C41.7493 17.0282 41.758 17.0292 41.766 17.032C41.7743 17.0348 41.7815 17.0394 41.7876 17.0454C41.7936 17.0514 41.7982 17.0588 41.8012 17.0669C41.8038 17.0749 41.805 17.0835 41.8038 17.092V17.3996C41.8046 17.4083 41.8038 17.4172 41.8008 17.4255C41.7982 17.4339 41.7936 17.4416 41.7879 17.4481C41.7819 17.4546 41.7747 17.4598 41.7663 17.4633C41.7584 17.4669 41.7497 17.4687 41.7406 17.4686H41.1969L41.2223 18.2093Z" fill="white"/>
<path d="M44.3334 16.9852C44.5342 16.9925 44.7282 17.0584 44.8914 17.1745C45.0547 17.2907 45.1801 17.4519 45.2517 17.6383C45.3237 17.8246 45.3385 18.0278 45.2949 18.2225C45.251 18.4172 45.1506 18.5948 45.0062 18.7333C44.8615 18.8718 44.6789 18.9649 44.4815 19.0012C44.2841 19.0375 44.08 19.0153 43.8951 18.9373C43.7102 18.8594 43.5526 18.7292 43.4416 18.5628C43.3306 18.3965 43.2715 18.2015 43.2715 18.002C43.2677 17.8642 43.2927 17.7272 43.3454 17.5996C43.3977 17.472 43.4765 17.3567 43.5765 17.261C43.6765 17.1653 43.7954 17.0914 43.9258 17.0439C44.0561 16.9964 44.1947 16.9764 44.3334 16.9852ZM44.3334 18.5481C44.4683 18.5337 44.5929 18.4703 44.6835 18.37C44.774 18.2698 44.8244 18.1399 44.8244 18.0051C44.8244 17.8705 44.774 17.7405 44.6835 17.6403C44.5929 17.5401 44.4683 17.4766 44.3334 17.4622C44.1985 17.4766 44.0735 17.5401 43.983 17.6403C43.8924 17.7405 43.8424 17.8705 43.8424 18.0051C43.8424 18.1399 43.8924 18.2698 43.983 18.37C44.0735 18.4703 44.1985 18.5337 44.3334 18.5481Z" fill="white"/>
<path d="M47.5241 18.0147V18.9123C47.5241 18.9289 47.5176 18.9449 47.5055 18.9567C47.4937 18.9684 47.4778 18.9751 47.4608 18.9751H47.0247C47.0073 18.9751 46.9906 18.9687 46.9778 18.9571C46.9649 18.9455 46.9569 18.9295 46.9554 18.9123V17.092C46.9554 17.0737 46.9626 17.0561 46.9755 17.0432C46.9887 17.0302 47.0062 17.0229 47.0247 17.0229H47.4418C47.4604 17.0229 47.4782 17.0302 47.4911 17.0432C47.504 17.0561 47.5115 17.0737 47.5115 17.092V17.2112C47.5706 17.1423 47.6445 17.087 47.7275 17.0491C47.8105 17.0112 47.9006 16.9915 47.9919 16.9916C48.1662 16.988 48.3367 17.0458 48.4723 17.1548C48.4825 17.1672 48.4882 17.1827 48.4882 17.1987C48.4882 17.2147 48.4825 17.2303 48.4723 17.2426L48.3079 17.5816C48.3079 17.613 48.2511 17.6192 48.2132 17.5816C48.1109 17.5107 47.99 17.4714 47.8654 17.4686C47.5684 17.4686 47.4862 17.7385 47.4862 18.0021" fill="white"/>
<path d="M50.0722 17.5753C50.0278 17.5753 50.0025 17.5753 49.9771 17.5753L49.857 17.3054C49.857 17.2678 49.857 17.2426 49.857 17.2176C50.0991 17.0776 50.3737 17.004 50.6537 17.0042C50.7689 16.9962 50.8848 17.0123 50.9935 17.0511C51.1023 17.0901 51.2019 17.151 51.2856 17.2301C51.4106 17.3718 51.4743 17.5568 51.4625 17.7448V18.9311C51.461 18.9484 51.4531 18.9643 51.4402 18.976C51.4273 18.9876 51.4106 18.994 51.3932 18.9939H51.014C50.9966 18.994 50.9795 18.9876 50.9666 18.976C50.9537 18.9643 50.9458 18.9484 50.9443 18.9311V18.8935C50.7889 18.9952 50.6056 19.0457 50.4196 19.0378C50.2521 19.0409 50.0888 18.9854 49.9581 18.8809C49.8952 18.8255 49.8452 18.7567 49.8123 18.6795C49.7797 18.6024 49.7645 18.5189 49.7687 18.4353C49.7683 18.3271 49.8024 18.2215 49.8661 18.1337C49.9293 18.0457 50.0191 17.98 50.1226 17.9457C50.3737 17.8524 50.6385 17.7994 50.9064 17.7888V17.7448C50.9128 17.6664 50.8901 17.5884 50.8431 17.5251C50.8121 17.4959 50.7753 17.4736 50.7351 17.4595C50.6946 17.4455 50.6518 17.44 50.6094 17.4435C50.4184 17.4476 50.2313 17.4994 50.0657 17.5942L50.0722 17.5753ZM50.9064 18.5357V18.1528C50.6473 18.1528 50.3124 18.1905 50.3124 18.4039C50.3124 18.6173 50.445 18.5985 50.6029 18.5985C50.7098 18.6005 50.8151 18.5721 50.9064 18.5169" fill="white"/>
<path d="M54.3012 19.4143C54.38 19.3241 54.4206 19.2072 54.4149 19.0879V18.8996C54.2671 18.9766 54.1016 19.0134 53.9345 19.0063C53.7 19.008 53.4738 18.9204 53.3026 18.7615C53.2052 18.6596 53.1291 18.5393 53.0795 18.4078C53.0294 18.2763 53.0063 18.1362 53.0116 17.9957C53.0063 17.7239 53.1033 17.4598 53.2837 17.2551C53.3685 17.1659 53.4719 17.0958 53.5863 17.0492C53.7008 17.0027 53.8239 16.9809 53.9474 16.9852C54.1228 16.9878 54.2929 17.0449 54.4338 17.1484V17.0919C54.4338 17.0837 54.4357 17.0755 54.4388 17.0678C54.4418 17.0603 54.4467 17.0533 54.4524 17.0475C54.4585 17.0417 54.4653 17.037 54.4729 17.0339C54.4808 17.0307 54.4888 17.0291 54.4971 17.0291H54.9207C54.9294 17.0282 54.9385 17.0292 54.9468 17.032C54.9551 17.0347 54.9631 17.0392 54.9695 17.0451C54.976 17.051 54.9813 17.0583 54.9847 17.0663C54.9885 17.0744 54.9904 17.0831 54.9904 17.0919V19.0189C55.0021 19.1596 54.9813 19.3011 54.9301 19.4327C54.8786 19.5643 54.7975 19.6825 54.693 19.7784C54.485 19.9292 54.2296 20.0025 53.9724 19.9855C53.7 19.9914 53.4318 19.9171 53.2014 19.7721C53.1927 19.7603 53.1878 19.746 53.1878 19.7313C53.1878 19.7166 53.1927 19.7024 53.2014 19.6905L53.3659 19.3641C53.3723 19.3573 53.3803 19.3518 53.389 19.3481C53.3973 19.3444 53.4068 19.3425 53.4162 19.3425C53.4257 19.3425 53.4352 19.3444 53.4439 19.3481C53.4526 19.3518 53.4606 19.3573 53.467 19.3641C53.6261 19.475 53.8159 19.5342 54.0107 19.5336C54.1277 19.54 54.2429 19.5019 54.3327 19.4269L54.3012 19.4143ZM54.4467 18.4351V17.6191C54.3327 17.5292 54.1936 17.4765 54.0485 17.4685C53.9906 17.4645 53.9326 17.4737 53.8788 17.4955C53.825 17.5173 53.7773 17.551 53.7386 17.594C53.6538 17.7158 53.6083 17.8603 53.6083 18.0083C53.6083 18.1563 53.6538 18.3008 53.7386 18.4226C53.7777 18.4631 53.825 18.4952 53.8773 18.5168C53.9292 18.5384 53.9857 18.549 54.0421 18.5481C54.1883 18.5468 54.3312 18.5032 54.4528 18.4226" fill="white"/>
<path d="M58.1242 18.4666C58.175 18.4666 58.2064 18.4666 58.2253 18.4666L58.3773 18.7428C58.3875 18.7551 58.3932 18.7707 58.3932 18.7867C58.3932 18.8027 58.3875 18.8183 58.3773 18.8306C58.1545 18.9654 57.8984 19.035 57.6377 19.0315C57.4942 19.0378 57.351 19.0156 57.2165 18.9659C57.0816 18.9164 56.9585 18.8405 56.8539 18.7428C56.6671 18.5431 56.5637 18.2808 56.5637 18.0084C56.5637 17.736 56.6671 17.4737 56.8539 17.274C56.9486 17.1816 57.0615 17.1094 57.1854 17.0619C57.3093 17.0144 57.4419 16.9926 57.5745 16.9978C57.7207 16.9896 57.8666 17.0167 57.9995 17.0768C58.1329 17.137 58.2496 17.2283 58.3394 17.343C58.4788 17.5778 58.5405 17.8499 58.5163 18.1214C58.5174 18.1298 58.5163 18.1385 58.5136 18.1465C58.5106 18.1546 58.5061 18.1619 58.5 18.168C58.4939 18.174 58.4864 18.1786 58.4784 18.1814C58.4701 18.1842 58.4617 18.1851 58.453 18.1841H57.1888C57.2066 18.281 57.2528 18.3705 57.3218 18.4415C57.3733 18.4896 57.4339 18.5271 57.4998 18.5518C57.5661 18.5766 57.6366 18.5882 57.7071 18.5859C57.8741 18.5833 58.0374 18.5378 58.1814 18.454L58.1242 18.4666ZM57.9916 17.8263C57.9905 17.7324 57.9567 17.6416 57.8969 17.569C57.859 17.5311 57.8135 17.5014 57.7635 17.482C57.7135 17.4625 57.6597 17.4537 57.6059 17.456C57.5495 17.4529 57.4927 17.4614 57.4396 17.4808C57.3862 17.5002 57.3377 17.5303 57.2964 17.569C57.2343 17.6414 57.1964 17.7315 57.1888 17.8263H57.9916Z" fill="white"/>
<path d="M24.2453 0.025168C22.9274 0.0239264 21.6388 0.410884 20.5423 1.13708C19.446 1.86329 18.5911 2.89611 18.0859 4.10488C17.5807 5.31364 17.4478 6.64409 17.7042 7.92786C17.9605 9.21159 18.5945 10.391 19.526 11.3169C20.4574 12.2428 21.6445 12.8735 22.937 13.1293C24.2294 13.3851 25.5693 13.2544 26.787 12.7538C28.0047 12.2533 29.0455 11.4053 29.7778 10.3172C30.5101 9.22912 30.901 7.94977 30.901 6.64101C30.9019 5.77248 30.7303 4.91235 30.3962 4.10972C30.0621 3.30708 29.572 2.5777 28.9539 1.96328C28.3358 1.34886 27.6017 0.861444 26.7938 0.528891C25.9859 0.196337 25.1199 0.0251677 24.2453 0.025168ZM24.2453 10.7587C23.4234 10.7599 22.6197 10.5189 21.9358 10.0663C21.2519 9.6136 20.7187 8.96959 20.4036 8.21578C20.0885 7.46197 20.0057 6.63228 20.1658 5.83175C20.3258 5.03117 20.7214 4.29581 21.3026 3.71869C21.8837 3.14157 22.6243 2.74868 23.4304 2.58975C24.2365 2.43083 25.072 2.51303 25.8311 2.82594C26.5901 3.13884 27.2387 3.66839 27.6945 4.34752C28.1503 5.02668 28.393 5.82485 28.3917 6.64101C28.3917 7.73308 27.9549 8.78041 27.1773 9.55263C26.3997 10.3248 25.345 10.7587 24.2453 10.7587Z" fill="white"/>
</svg>
