<svg width="20" height="19" viewBox="0 0 20 19" fill="none" xmlns="http://www.w3.org/2000/svg">
<g clip-path="url(#clip0_11_3896)">
<path fill-rule="evenodd" clip-rule="evenodd" d="M18.8345 16.4618C18.2481 18.244 15.9503 19.1328 14.3087 18.9846C12.0667 18.7819 9.62713 17.5927 7.77526 16.283C5.05319 14.3577 2.50339 11.3795 1.01759 8.21914C-0.0324782 5.98601 -0.268075 3.24039 1.29372 1.20485C1.87132 0.452453 2.49579 0.0506126 3.43439 0.00374595C4.73652 -0.0595874 4.91893 0.685341 5.36606 1.84561C5.69919 2.71327 6.14379 3.59836 6.39206 4.49769C6.85692 6.17602 5.23179 6.24617 5.02659 7.61797C4.89866 8.4831 5.94746 9.64329 6.42119 10.2602C7.34966 11.4686 8.46559 12.5108 9.72466 13.3037C10.4454 13.7585 11.6095 14.5779 12.4353 14.1257C13.7071 13.4291 13.5867 11.2847 15.3651 12.0105C16.286 12.3854 17.1777 12.9265 18.0568 13.4002C19.4159 14.1311 19.3526 14.8886 18.8345 16.4618C19.2221 15.2863 18.4469 17.6372 18.8345 16.4618Z" fill="#888888"/>
</g>
<defs>
<clipPath id="clip0_11_3896">
<rect width="19" height="19" fill="white" transform="translate(0.176147)"/>
</clipPath>
</defs>
</svg>
