<svg width="23" height="23" viewBox="0 0 23 23" fill="none" xmlns="http://www.w3.org/2000/svg">
<g clip-path="url(#clip0_11_4107)">
<path d="M12.1177 0.5C6.41149 0.5 1.80524 5.10625 1.80524 10.8125C1.80524 13.15 2.56149 15.35 4.00524 17.1375L2.56149 21.5375C2.49274 21.8125 2.56149 22.0875 2.76774 22.2938C2.83649 22.4312 3.04274 22.5 3.18024 22.5C3.24899 22.5 3.38649 22.5 3.45524 22.4312L8.19899 20.3C9.43649 20.85 10.7427 21.125 12.1177 21.125C17.824 21.125 22.4302 16.5187 22.4302 10.8125C22.4302 5.10625 17.824 0.5 12.1177 0.5ZM18.099 14.5938C17.824 15.4187 16.7927 16.1062 15.899 16.2437C15.6927 16.3125 15.4865 16.3125 15.2115 16.3125C14.6615 16.3125 13.8365 16.175 12.3927 15.5562C10.7427 14.8687 9.09274 13.425 7.78649 11.5688V11.5C7.37399 10.8813 6.61774 9.7125 6.61774 8.475C6.61774 6.9625 7.37399 6.20625 7.64899 5.8625C7.99274 5.51875 8.47399 5.3125 9.02399 5.3125C9.16149 5.3125 9.23024 5.3125 9.36774 5.3125C9.84899 5.3125 10.1927 5.45 10.5365 6.1375L10.8115 6.6875C11.0177 7.2375 11.2927 7.85625 11.3615 7.925C11.5677 8.3375 11.5677 8.68125 11.3615 9.025C11.2927 9.23125 11.1552 9.36875 11.0177 9.50625C10.949 9.64375 10.8802 9.7125 10.8115 9.7125C10.7427 9.78125 10.7427 9.78125 10.674 9.85C10.8802 10.1938 11.2927 10.8125 11.8427 11.2937C12.6677 12.05 13.2865 12.2562 13.6302 12.3937C13.7677 12.2562 13.9052 11.9812 14.1115 11.775L14.1802 11.6375C14.524 11.1563 15.074 11.0188 15.624 11.225C15.899 11.3625 17.4115 12.05 17.4115 12.05L17.549 12.1187C17.7552 12.2562 18.0302 12.325 18.1677 12.6C18.4427 13.2188 18.2365 14.1125 18.099 14.5938Z" fill="#F8F9F8"/>
</g>
<defs>
<clipPath id="clip0_11_4107">
<rect width="22" height="22" fill="white" transform="translate(0.430237 0.5)"/>
</clipPath>
</defs>
</svg>
