<svg width="30" height="29" viewBox="0 0 30 29" fill="none" xmlns="http://www.w3.org/2000/svg">
<path d="M24.5944 8.38279H18.2506C17.8754 8.38279 17.5709 8.68729 17.5709 9.06248C17.5709 9.43766 17.8754 9.74216 18.2506 9.74216H23.9147V19.2578H18.2506C17.8754 19.2578 17.5709 19.5623 17.5709 19.9375C17.5709 20.3127 17.8754 20.6172 18.2506 20.6172H24.5944C24.9695 20.6172 25.274 20.3127 25.274 19.9375V9.06248C25.274 8.68729 24.9695 8.38279 24.5944 8.38279ZM9.18811 19.2578H2.6178V9.74216H11.0006C11.3758 9.74216 11.6803 9.43766 11.6803 9.06248C11.6803 8.68729 11.3758 8.38279 11.0006 8.38279H1.93811C1.56292 8.38279 1.25842 8.68729 1.25842 9.06248V19.9375C1.25842 20.3127 1.56292 20.6172 1.93811 20.6172H9.18811C9.5633 20.6172 9.8678 20.3127 9.8678 19.9375C9.8678 19.5623 9.5633 19.2578 9.18811 19.2578ZM27.3131 12.0078C26.9379 12.0078 26.6334 12.3123 26.6334 12.6875V16.3125C26.6334 16.6877 26.9379 16.9922 27.3131 16.9922C27.6883 16.9922 27.9928 16.6877 27.9928 16.3125V12.6875C27.9928 12.3123 27.6883 12.0078 27.3131 12.0078ZM18.8025 13.1968C18.6775 13.0246 18.4772 12.914 18.2506 12.914C18.1917 12.914 18.1346 12.9213 18.0802 12.9358L18.0848 12.9349L12.4878 14.3341L17.9162 5.80269C17.9815 5.70029 18.0204 5.57523 18.0204 5.4411C18.0204 5.06591 17.7159 4.76141 17.3407 4.76141C17.1015 4.76141 16.8912 4.88466 16.7707 5.07135L16.7689 5.07407L10.4251 15.0428C10.359 15.1461 10.3191 15.2721 10.3191 15.4071C10.3191 15.7823 10.6236 16.0868 10.9988 16.0868C11.0577 16.0868 11.1139 16.0796 11.1683 16.066L11.1637 16.0669L16.7607 14.6676L11.3323 23.1991C11.2652 23.3024 11.2263 23.4284 11.2263 23.5634C11.2263 23.8035 11.3504 24.0147 11.5389 24.1352L11.5416 24.137C11.644 24.2032 11.7691 24.2431 11.9032 24.2431C11.9041 24.2431 11.9041 24.2431 11.905 24.2431C12.1452 24.2431 12.3573 24.1189 12.4778 23.9304L12.4796 23.9277L18.8234 13.9589C18.8895 13.8556 18.9294 13.7288 18.9294 13.5937C18.9294 13.4451 18.8814 13.3074 18.8007 13.195L18.8025 13.1968Z" fill="white"/>
</svg>
