<svg width="28" height="27" viewBox="0 0 28 27" fill="none" xmlns="http://www.w3.org/2000/svg">
<path d="M13.6256 1.05469C13.2763 1.05469 12.9928 1.33819 12.9928 1.6875V8.4375C12.9928 8.78681 13.2763 9.07031 13.6256 9.07031C13.9749 9.07031 14.2584 8.78681 14.2584 8.4375V1.6875C14.2584 1.33819 13.9749 1.05469 13.6256 1.05469ZM13.6256 17.9297C13.2763 17.9297 12.9928 18.2132 12.9928 18.5625V25.3125C12.9928 25.6618 13.2763 25.9453 13.6256 25.9453C13.9749 25.9453 14.2584 25.6618 14.2584 25.3125V18.5625C14.2584 18.2132 13.9749 17.9297 13.6256 17.9297ZM9.19592 13.5C9.19592 13.1507 8.91242 12.8672 8.56311 12.8672H1.81311C1.4638 12.8672 1.1803 13.1507 1.1803 13.5C1.1803 13.8493 1.4638 14.1328 1.81311 14.1328H8.56311C8.91242 14.1328 9.19592 13.8493 9.19592 13.5ZM25.4381 12.8672H18.6881C18.3388 12.8672 18.0553 13.1507 18.0553 13.5C18.0553 13.8493 18.3388 14.1328 18.6881 14.1328H25.4381C25.7874 14.1328 26.0709 13.8493 26.0709 13.5C26.0709 13.1507 25.7874 12.8672 25.4381 12.8672ZM5.72052 4.69969C5.60661 4.58916 5.45136 4.52081 5.28008 4.52081C4.93077 4.52081 4.64727 4.80431 4.64727 5.15363C4.64727 5.32491 4.71561 5.48016 4.82614 5.59406L9.59924 10.3672C9.71314 10.4768 9.86755 10.5435 10.038 10.5435C10.3873 10.5435 10.6708 10.26 10.6708 9.91069C10.6708 9.74025 10.6033 9.58584 10.4936 9.47194L5.72052 4.69969ZM17.6528 16.6312C17.5381 16.5164 17.3795 16.4455 17.2048 16.4455C16.8546 16.4455 16.5711 16.729 16.5711 17.0792C16.5711 17.2538 16.642 17.4125 16.7568 17.5272L21.5307 22.3012C21.6455 22.4159 21.8041 22.4868 21.9787 22.4868C22.3289 22.4868 22.6124 22.2033 22.6124 21.8531C22.6124 21.6785 22.5415 21.5198 22.4268 21.4051L17.6528 16.6312ZM9.59924 16.6312L4.82614 21.4051C4.71139 21.5198 4.64052 21.6785 4.64052 21.8531C4.64052 22.2033 4.92402 22.4868 5.27417 22.4868C5.44883 22.4868 5.60661 22.4159 5.72136 22.302L10.4945 17.5281C10.6092 17.4133 10.6801 17.2547 10.6801 17.08C10.6801 16.7299 10.3966 16.4464 10.0464 16.4464C9.87177 16.4464 9.71314 16.5173 9.59924 16.6312ZM17.2048 10.5536C17.3795 10.5536 17.5389 10.4827 17.6537 10.368L22.4276 5.59491C22.5424 5.48016 22.6124 5.32237 22.6124 5.14772C22.6124 4.79756 22.3289 4.51406 21.9787 4.51406C21.8032 4.51406 21.6455 4.58494 21.5307 4.69969L16.7568 9.47278C16.642 9.58753 16.5711 9.74531 16.5711 9.91997C16.5711 10.2693 16.8546 10.5528 17.204 10.5528H17.2048V10.5536Z" fill="white"/>
</svg>
