<svg width="28" height="27" viewBox="0 0 28 27" fill="none" xmlns="http://www.w3.org/2000/svg">
<path d="M26.2338 7.16678C25.5453 4.67181 23.6198 2.74637 21.1763 2.07053L21.1257 2.05872C20.5764 1.92456 19.9453 1.84778 19.2956 1.84778C17.0816 1.84778 15.0769 2.74384 13.6239 4.19256C12.3094 2.92272 10.5172 2.13972 8.54202 2.13972C7.89233 2.13972 7.26289 2.22409 6.66383 2.38272L6.71445 2.3709C4.09545 3.11509 2.07467 5.13587 1.34398 7.70087L1.33048 7.75572C1.1862 8.30247 1.10352 8.93106 1.10352 9.57822C1.10352 11.7618 2.04598 13.7252 3.54702 15.0837L3.55377 15.0896L13.1565 25.7369C13.2729 25.866 13.44 25.9461 13.6265 25.9461C13.8129 25.9461 13.98 25.866 14.0956 25.7377L14.0964 25.7369L23.689 15.1014C25.3782 13.5919 26.4363 11.4066 26.4363 8.97493C26.4363 8.33453 26.3629 7.711 26.2236 7.11193L26.2346 7.16762L26.2338 7.16678ZM22.7584 14.2416L13.6256 24.3683L4.47008 14.218C4.44223 14.1902 4.42114 14.1606 4.39414 14.1328H6.87561C7.10933 14.1328 7.31436 14.0054 7.4232 13.8172L7.42489 13.8138L10.054 9.21203L13.0173 19.5792C13.0924 19.8399 13.3244 20.0289 13.602 20.039H13.6248C13.8965 20.039 14.1285 19.8669 14.2179 19.6264L14.2196 19.6222L17.0917 11.7239L18.122 13.7826C18.2274 13.9919 18.4409 14.1328 18.6873 14.1328H22.8562C22.8292 14.1606 22.8073 14.1902 22.7795 14.218L22.7584 14.2416ZM23.9025 12.8672H19.0779L17.5651 9.84231C17.4596 9.63306 17.2453 9.49215 16.9989 9.49215C16.7272 9.49215 16.4952 9.66428 16.4058 9.90475L16.4041 9.90897L13.6965 17.3559L10.8573 7.4199C10.7788 7.15328 10.5366 6.9609 10.2489 6.9609C10.0152 6.9609 9.81102 7.08747 9.70133 7.27646L9.69964 7.27984L6.50689 12.8672H3.37489C2.7387 11.9449 2.35902 10.8025 2.35902 9.57231C2.35902 9.04243 2.42905 8.52943 2.56152 8.04175L2.55223 8.08309C3.17323 5.89947 4.8582 4.2145 6.99627 3.60531L7.04183 3.59434C7.48902 3.46862 8.00202 3.39606 8.53189 3.39522C10.3713 3.45006 12.014 4.25162 13.1734 5.50712L13.1776 5.51134C13.294 5.62187 13.4518 5.68937 13.6248 5.68937C13.7977 5.68937 13.9555 5.62187 14.0728 5.51134C15.3443 4.04153 17.2132 3.11678 19.2973 3.11678C19.8289 3.11678 20.3469 3.17668 20.8439 3.29059L20.7975 3.28131C22.8554 3.85 24.4433 5.43709 25.001 7.45281L25.0112 7.495C25.1285 7.95315 25.1968 8.47881 25.1968 9.01965C25.1968 10.4726 24.7108 11.8116 23.8915 12.8832L23.9025 12.868V12.8672Z" fill="white"/>
</svg>
