<svg width="28" height="27" viewBox="0 0 28 27" fill="none" xmlns="http://www.w3.org/2000/svg">
<path d="M18.6881 1.05469H8.56311C7.2823 1.05638 6.24449 2.09419 6.2428 3.375V23.625C6.24449 24.9058 7.2823 25.9436 8.56311 25.9453H18.6881C19.9689 25.9436 21.0067 24.9058 21.0084 23.625V3.375C21.0067 2.09419 19.9689 1.05638 18.6881 1.05469ZM19.7428 23.625C19.742 24.2072 19.2703 24.6788 18.6881 24.6797H8.56311C7.98092 24.6788 7.50927 24.2072 7.50842 23.625V3.375C7.50927 2.79281 7.98092 2.32116 8.56311 2.32031H18.6881C19.2703 2.32116 19.742 2.79281 19.7428 3.375V23.625ZM13.035 21.346C12.8789 21.492 12.7819 21.6987 12.7819 21.9282C12.7819 21.9316 12.7819 21.935 12.7819 21.9383C12.7819 21.9417 12.7819 21.9451 12.7819 21.9493C12.7819 22.183 12.8789 22.394 13.035 22.5433C13.1835 22.6994 13.3927 22.7973 13.6256 22.7973C13.8585 22.7973 14.0677 22.7003 14.2154 22.5442C14.3723 22.394 14.4694 22.1822 14.4694 21.9485C14.4694 21.9451 14.4694 21.9409 14.4694 21.9375C14.4694 21.935 14.4694 21.9324 14.4694 21.9299C14.4694 21.6996 14.3715 21.4928 14.2162 21.3477L14.2154 21.3469C14.0627 21.1984 13.8551 21.1073 13.6248 21.1073C13.3944 21.1073 13.1869 21.1984 13.0341 21.3469L13.035 21.346Z" fill="white"/>
</svg>
